<svg width="220" height="103" viewBox="0 0 220 103" fill="none" xmlns="http://www.w3.org/2000/svg">
<path d="M168.148 78.1888C168.06 78.1863 167.972 78.1729 167.886 78.149C166.682 77.9782 165.467 77.8984 164.251 77.91C162.255 77.9147 160.263 78.0764 158.293 78.3936C157.967 79.2314 157.691 80.0884 157.469 80.9597C156.535 84.8571 156.12 91.0589 159.175 91.736C159.397 91.7766 159.622 91.8013 159.847 91.81C163.875 91.81 165.133 83.3949 165.224 82.2911C165.315 81.1873 166.709 80.9597 167.585 80.9597C168.461 80.9597 169.064 81.3011 169.064 81.8416C169.151 84.7058 168.311 87.5214 166.669 89.8698C164.922 92.4358 162.191 93.972 159.716 93.972C157.338 93.972 155.164 92.5325 154.356 89.1927C153.617 85.8861 153.617 82.457 154.356 79.1504C154.242 79.1504 154.134 79.1504 154.021 79.1504C153.452 79.1504 153.065 78.9626 153.924 78.2116C154.17 78.0172 154.426 77.8367 154.692 77.6711C155.346 75.1312 156.173 72.639 157.167 70.2119C157.313 69.9391 157.537 69.7166 157.811 69.5734C158.085 69.4303 158.396 69.3732 158.703 69.4096C159.212 69.4165 159.714 69.5228 160.182 69.7225C161.366 70.2517 161.064 71.1848 160.706 72.2146C160.347 73.2445 159.79 74.5759 159.227 75.9641C161.564 75.387 163.96 75.0797 166.367 75.0481C167.089 75.0457 167.809 75.0951 168.524 75.196C168.524 75.196 170.395 75.3838 170.23 76.3966C170.121 76.8795 169.86 77.3147 169.485 77.6383C169.11 77.9619 168.642 78.1568 168.148 78.1945" fill="#231F20"/>
<path d="M183.131 83.2248C182.939 85.2134 182.593 87.1841 182.096 89.1193C181.79 90.42 181.41 91.7023 180.958 92.9598C180.859 93.1522 180.703 93.3098 180.512 93.4114C180.321 93.5131 180.103 93.554 179.888 93.5288C179.415 93.5002 178.944 93.4297 178.483 93.3183C177.641 93.0395 177.817 91.93 178.096 91.3212C179.258 88.3706 180.024 85.2788 180.372 82.1267C180.338 81.808 180.742 80.3002 180.161 80.3002H180.059C178.546 82.1437 175.302 87.4408 174.25 88.9657C173.681 92.021 173.214 94.8261 173.442 97.9326C173.374 98.8999 174.318 101.284 173.106 101.654C172.944 101.675 172.78 101.686 172.617 101.688C172.298 101.711 171.978 101.659 171.681 101.538C171.385 101.416 171.121 101.228 170.91 100.988C168.68 95.8673 173.226 83.1053 172.088 78.1268C172.033 78.062 171.994 77.9852 171.975 77.9026C171.956 77.8201 171.957 77.7341 171.977 77.6518C171.998 77.5696 172.038 77.4934 172.093 77.4296C172.149 77.3657 172.219 77.3161 172.298 77.2847C172.545 77.2336 172.797 77.2088 173.049 77.2107C175.718 77.2107 175.962 80.4937 175.365 82.7582C176.156 81.7056 177.368 80.0556 177.641 79.7028C178.534 78.4909 179.416 77.0571 180.941 77.0571C181.263 77.0601 181.582 77.1178 181.885 77.2278C182.608 77.3188 183.023 78.2121 183.188 78.7356C183.643 80.2661 183.24 81.7397 183.148 83.2304" fill="#231F20"/>
<path d="M203.805 80.3509C203.806 80.5229 203.788 80.6945 203.754 80.863C203.611 81.3523 203.509 81.8644 203.333 82.3366C202.852 83.6429 202.535 85.0036 202.388 86.3877C202.28 87.0303 202.244 87.6829 202.28 88.3335C202.28 88.8627 202.331 89.426 202.365 89.9665C202.392 90.5424 202.476 91.1142 202.616 91.6734C202.65 91.8669 202.684 92.0432 202.718 92.2424C202.758 92.3775 202.754 92.5217 202.707 92.6544C202.66 92.7871 202.572 92.9018 202.456 92.982C202.297 93.0844 202.138 93.1925 201.984 93.2779C201.776 93.3834 201.546 93.438 201.313 93.4372C200.785 93.4089 200.285 93.1905 199.905 92.8224C199.526 92.4543 199.292 91.9613 199.247 91.4344C199.247 91.1898 199.247 90.9622 199.247 90.7175C199.247 89.9437 199.247 89.1756 199.247 88.4018C199.247 88.2254 199.173 87.9637 198.963 87.9637H198.912C198.783 88.0615 198.665 88.1721 198.559 88.2937C198.161 88.8627 197.774 89.4317 197.336 89.9608C196.841 90.5924 196.334 91.2068 195.805 91.8043C195.601 92.027 195.352 92.2044 195.074 92.325C194.797 92.4455 194.497 92.5065 194.195 92.5041C193.758 92.5464 193.318 92.4614 192.929 92.2595C192.539 92.0576 192.216 91.7474 191.999 91.3662C191.857 91.0305 191.754 90.7005 191.703 90.5582C191.583 90.0419 191.535 89.5116 191.561 88.9822C191.191 89.4373 190.719 90.0348 190.491 90.3477C189.979 90.9792 189.49 91.5937 188.949 92.1741C188.749 92.4045 188.5 92.5881 188.221 92.712C187.942 92.8358 187.639 92.8969 187.333 92.891C186.897 92.9256 186.461 92.8373 186.072 92.6362C185.684 92.435 185.36 92.1291 185.137 91.753C185 91.4174 184.892 91.0874 184.841 90.9451C184.695 90.2879 184.661 89.611 184.739 88.9423C184.926 86.3639 185.384 83.8123 186.104 81.3295C186.4 80.3452 187.157 78.314 187.544 77.3467C187.601 77.1655 187.671 76.9887 187.754 76.8176C187.821 76.6692 187.93 76.5437 188.068 76.4567C188.205 76.3697 188.365 76.3251 188.528 76.3283C189.228 76.3283 190.633 76.5729 190.633 77.506C190.664 77.8813 190.609 78.2586 190.474 78.6098C190.44 78.6952 190.4 78.7692 190.366 78.8374C189.682 80.3145 189.097 81.835 188.613 83.3892C188.159 85.0551 187.849 86.7568 187.686 88.4758C187.624 88.7718 187.636 89.0786 187.72 89.3691C187.738 89.4263 187.774 89.4761 187.823 89.5113C187.874 89.5308 187.927 89.5423 187.982 89.5454C188.01 89.5535 188.039 89.5535 188.067 89.5454C188.139 89.5167 188.2 89.4672 188.244 89.4032C188.875 88.5611 190.787 85.6708 191.14 85.0563C191.401 84.6182 191.646 84.1573 191.913 83.7192C192.139 83.3513 192.344 82.9714 192.528 82.5813V82.6495C192.884 81.0891 193.357 79.558 193.945 78.0693C194.019 77.893 194.07 77.6995 194.155 77.5288C194.218 77.3782 194.326 77.251 194.465 77.1653C194.604 77.0795 194.766 77.0395 194.929 77.0509C195.669 77.0509 196.983 77.3012 197.034 78.2286C197.064 78.6038 197.009 78.9809 196.875 79.3324C196.841 79.4064 196.807 79.4747 196.772 79.56C196.225 80.6846 195.791 81.8605 195.475 83.0706C195.008 84.728 194.696 86.4251 194.542 88.1401C194.477 88.4378 194.489 88.7471 194.576 89.0391C194.576 89.0903 194.65 89.1756 194.684 89.1756C194.735 89.1956 194.789 89.2071 194.844 89.2098C194.872 89.2163 194.901 89.2163 194.929 89.2098C194.999 89.1812 195.06 89.134 195.105 89.0732C195.786 88.2817 196.403 87.4369 196.949 86.547C197.279 85.9325 197.649 85.3351 198.001 84.7206C198.246 84.2825 198.491 83.8273 198.77 83.3892C199.01 83.0328 199.21 82.6512 199.367 82.2512C199.737 81.3409 200.209 80.5443 200.647 79.6909C200.698 79.5913 200.757 79.4961 200.823 79.4064C200.897 79.2942 200.996 79.2002 201.111 79.1312C201.226 79.0623 201.355 79.0202 201.489 79.0081C201.597 79.0081 201.722 79.0081 201.842 79.0081C202.353 79.0056 202.852 79.1672 203.264 79.469C203.421 79.5795 203.549 79.7261 203.637 79.8965C203.725 80.0668 203.771 80.2558 203.771 80.4476" fill="#231F20"/>
<path d="M215.57 102.956C212.259 102.956 208.743 99.8839 211.377 90.6552C211.502 90.1659 211.627 89.6709 211.747 89.1816C211.725 89.1629 211.7 89.1487 211.672 89.1399C211.645 89.1312 211.616 89.1279 211.588 89.1304C211.081 89.1304 209.852 90.2683 209.414 90.4276C208.976 90.5869 208.606 90.8487 208.219 91.0762C207.904 91.2348 207.554 91.313 207.201 91.3038C206.063 91.3038 204.783 90.6211 204.925 89.4092C205.306 86.3538 206.939 83.5829 207.03 80.4422C207.167 79.4977 206.461 78.7751 205.892 78.0753C205.889 77.9414 205.915 77.8086 205.969 77.6859C206.022 77.5632 206.102 77.4536 206.202 77.3648C206.302 77.276 206.421 77.2101 206.549 77.1716C206.677 77.1332 206.812 77.1231 206.945 77.1422C207.997 77.1422 209.454 77.9501 209.716 78.9003C210.455 80.2829 210.347 82.041 209.875 83.5659C209.226 85.5459 208.105 88.0038 208.68 88.0038C208.982 88.0038 209.733 87.3381 211.229 85.6369C212.879 83.93 213.613 81.4095 214.546 79.1791C214.659 79.0272 214.807 78.905 214.977 78.8227C215.148 78.7405 215.336 78.7007 215.525 78.7069C215.593 78.7069 217.089 79.2758 217.232 80.0382C217.357 81.6883 216.725 82.9684 216.213 84.4762C214.831 88.459 212.799 94.217 213.494 98.4956C213.704 99.7929 214.757 101.096 215.707 101.096C216.196 101.096 216.657 100.76 216.97 99.9579C217.129 99.6961 217.249 99.4344 217.408 99.1841C217.546 98.988 217.73 98.8296 217.945 98.7232C218.16 98.6169 218.398 98.566 218.637 98.5753C218.921 98.5615 219.202 98.6347 219.443 98.7852C219.684 98.9357 219.873 99.1563 219.986 99.4173C220.196 101.414 217.954 102.979 215.582 102.979" fill="#231F20"/>
<path d="M126.288 87.1789C125.652 87.8322 124.954 88.4228 124.205 88.9427C123.433 89.4032 122.542 89.6249 121.645 89.5799C121.103 89.6202 120.56 89.5324 120.059 89.3239C119.558 89.1153 119.113 88.7918 118.76 88.3794C118.119 87.579 118.066 86.5378 118.601 85.2558C118.886 84.8199 119.263 84.4512 119.705 84.1752C120.147 83.8991 120.644 83.7223 121.161 83.6569C121.901 83.5269 122.652 83.4735 123.403 83.4976H126.288V87.1789ZM115.716 77.9217C116.632 77.3047 117.63 76.8183 118.68 76.4765C119.811 76.0704 121.001 75.8551 122.202 75.8393C123.234 75.8125 124.247 76.1221 125.087 76.7212C125.884 77.2902 126.288 78.3485 126.288 79.8392V81.125H123.722C122.567 81.1214 121.414 81.2281 120.279 81.4437C119.231 81.6349 118.227 82.0209 117.321 82.5816C116.582 82.9962 115.971 83.6065 115.557 84.3454C115.177 85.0153 114.95 85.761 114.893 86.5289C114.835 87.2969 114.948 88.0681 115.224 88.7871C115.5 89.5061 115.931 90.1552 116.488 90.6877C117.044 91.2203 117.711 91.6231 118.442 91.8672C119.358 92.0889 120.298 92.196 121.241 92.1858C122.213 92.1959 123.174 91.9777 124.046 91.5486C124.438 91.3581 124.818 91.1434 125.184 90.9056C125.502 90.6951 125.872 90.4277 126.322 90.1091V92.146H129.525V79.6286C129.525 77.7093 129.043 76.2414 128.08 75.2248C127.133 74.2194 125.906 73.5216 124.558 73.222C123.077 72.9047 121.542 72.934 120.074 73.3074C118.535 73.6562 117.07 74.2787 115.75 75.1452L115.716 77.9217ZM142.458 95.6963C141.232 96.3467 139.862 96.6774 138.475 96.6579C136.764 96.6579 135.535 96.4436 134.788 96.015C134.406 95.8598 134.08 95.5934 133.852 95.2505C133.624 94.9075 133.504 94.5038 133.508 94.0919C133.495 93.6471 133.574 93.2045 133.739 92.7915C133.905 92.3785 134.153 92.0039 134.469 91.6908C134.818 91.3358 135.199 91.0139 135.607 90.7292L140.25 90.8886C141.028 90.9751 141.786 91.1925 142.492 91.5315C142.819 91.6989 143.097 91.9494 143.296 92.2581C143.496 92.5667 143.611 92.9225 143.63 93.2896C143.657 93.7541 143.568 94.218 143.369 94.6386C143.17 95.0592 142.868 95.423 142.492 95.6963M140.973 82.3256C140.173 82.9457 139.178 83.2586 138.168 83.2075C135.71 83.2075 134.483 81.9785 134.486 79.5205C134.435 78.4985 134.78 77.4962 135.448 76.7212C135.8 76.3632 136.226 76.0849 136.695 75.9053C137.164 75.7257 137.666 75.6488 138.168 75.68C140.732 75.68 142.014 76.9602 142.014 79.5205C142.014 80.8007 141.667 81.7395 140.973 82.3256ZM147.095 73.2448H138.134C136.398 73.2215 134.705 73.7871 133.331 74.8493C131.943 75.919 131.249 77.4666 131.249 79.4921C131.219 80.9111 131.734 82.2876 132.688 83.3383C132.171 83.8528 131.739 84.4463 131.408 85.0964C131.089 85.7438 130.925 86.4569 130.93 87.1789C130.909 87.7499 131.077 88.3121 131.408 88.7777C131.741 89.3132 132.25 89.7158 132.848 89.9156C132.319 90.4561 131.835 90.9625 131.408 91.4405C130.977 91.9279 130.652 92.4994 130.452 93.1189C130.236 93.9606 130.236 94.8433 130.452 95.685C130.568 96.1204 130.769 96.5286 131.044 96.886C131.318 97.2434 131.661 97.543 132.051 97.7674C132.93 98.3063 133.91 98.6588 134.93 98.8029C136.043 98.9702 137.167 99.052 138.293 99.0476C139.591 99.06 140.885 98.8973 142.139 98.564C143.128 98.3342 144.056 97.8979 144.864 97.2838C145.498 96.7336 146.038 96.0841 146.463 95.3607C146.795 94.6609 146.959 93.8932 146.941 93.1189C146.947 92.397 146.783 91.6838 146.463 91.0365C145.942 90.0928 145.085 89.3798 144.062 89.0394C143.027 88.6727 141.951 88.4301 140.859 88.3168L136.216 88.1575C135.658 88.1505 135.108 88.0142 134.612 87.7592C134.372 87.6621 134.168 87.495 134.024 87.2798C133.881 87.0647 133.806 86.8114 133.809 86.553C133.771 86.2148 133.826 85.8725 133.967 85.5628C134.108 85.2531 134.331 84.9877 134.612 84.7949L135.255 85.1135C135.562 85.2552 135.885 85.362 136.216 85.4321C136.841 85.6121 137.484 85.7209 138.134 85.7564C139.116 85.7694 140.093 85.6056 141.018 85.2728C143.795 84.1008 145.183 82.1264 145.183 79.3499C145.218 78.7546 145.122 78.159 144.9 77.6054C144.679 77.0517 144.339 76.5536 143.903 76.1465H147.095V73.2448ZM82.733 82.6954C83.6926 79.494 84.6523 76.3438 85.6119 73.2448H80.4912C79.9564 75.4865 79.3685 77.7624 78.7274 80.0724C78.0864 82.3825 77.4984 84.7001 76.9636 87.0252C76.205 84.6773 75.5393 82.3559 74.9665 80.0611C74.3938 77.7662 73.7793 75.4903 73.1231 73.2334H68.4803L64.9583 87.0252C64.4235 84.7835 63.809 82.4621 63.1149 80.0611C62.4207 77.66 61.7532 75.3841 61.1121 73.2334H55.8321C56.7917 76.3362 57.7514 79.4599 58.7111 82.6044C59.6707 85.7489 60.6323 88.9294 61.5957 92.146H67.5187C68.0535 90.1204 68.5827 88.1632 69.1232 86.223C69.6637 84.2828 70.1872 82.3256 70.722 80.3C71.2568 82.3256 71.786 84.2828 72.3265 86.223C72.867 88.1632 73.3905 90.1204 73.9253 92.146H79.8483C80.8079 89.0584 81.7695 85.9101 82.733 82.7011M33.574 92.146H38.3761L38.2168 80.6186V79.0995C38.2115 78.5874 38.1582 78.0768 38.0575 77.5747C37.1964 74.6957 35.2752 73.2543 32.2938 73.2505C31.3327 73.2563 30.3828 73.4581 29.5023 73.8435C28.6219 74.229 27.8293 74.79 27.1731 75.4922V73.2505H22.5303V92.146H27.1731V79.9757C27.7603 79.283 28.4035 78.6398 29.0962 78.0526C29.5889 77.6391 30.2111 77.4116 30.8543 77.4097C31.2972 77.369 31.7426 77.4542 32.1392 77.6555C32.5358 77.8568 32.8675 78.166 33.096 78.5476C33.5282 79.329 33.6977 80.2286 33.5797 81.1136L33.574 92.146ZM52.0655 87.8218C50.8934 88.1411 49.6742 88.2509 48.4639 88.1461C47.3849 88.0687 46.3532 87.6727 45.4996 87.0082C44.703 86.3652 44.4072 85.3013 44.6234 83.8049H54.5519C55.1891 83.8049 55.5874 83.6152 55.7467 83.2359C55.9442 82.6444 56.0273 82.0207 55.9914 81.3981C56.0423 79.7449 55.5853 78.1157 54.682 76.7301C53.7786 75.3445 52.4722 74.2691 50.9389 73.6488C49.4959 73.0634 47.9108 72.9228 46.3872 73.2448C44.6702 73.6338 43.1088 74.5274 41.9037 75.8109C40.4042 77.8495 39.6166 80.3245 39.6619 82.8547C39.575 84.7741 40.0774 86.6741 41.1014 88.2997C42.0136 89.6465 43.2933 90.703 44.7884 91.3437C46.3567 91.9953 48.0564 92.2681 49.7498 92.1403C51.6411 92.0188 53.4906 91.5299 55.1948 90.7008V86.5359C54.2248 87.1192 53.1715 87.5509 52.0712 87.8161M44.4697 80.135C44.7001 79.2362 45.1083 78.3927 45.6703 77.6543C45.9248 77.2759 46.2701 76.9672 46.6746 76.7565C47.0791 76.5459 47.53 76.4398 47.986 76.4481C48.4655 76.4069 48.948 76.4797 49.394 76.6606C49.84 76.8416 50.2368 77.1256 50.552 77.4893C51.1156 78.2629 51.449 79.1801 51.5136 80.135H44.4697ZM110.112 92.146H113.474V80.4537C113.471 79.5665 113.391 78.6813 113.235 77.8079C113.08 76.9131 112.724 76.0651 112.194 75.3272C111.63 74.5988 110.899 74.0154 110.064 73.6256C109.229 73.2357 108.313 73.0506 107.392 73.0855C106.203 73.0948 105.049 73.4947 104.109 74.2234C103.115 74.9543 102.178 75.7588 101.304 76.6302C100.916 75.4976 100.116 74.5528 99.0624 73.9845C98.035 73.4086 96.8775 73.105 95.6998 73.1026C94.6441 73.0683 93.6058 73.3778 92.7411 73.9845C91.9389 74.5534 91.1082 75.2419 90.2547 75.9872V73.2619H87.0571V92.146H90.2547V79.3328C91.1082 78.4793 91.8592 77.7055 92.4965 77.0114C92.8244 76.6638 93.2233 76.3909 93.6661 76.2112C94.1089 76.0316 94.5851 75.9494 95.0625 75.9702C95.5755 75.9389 96.0878 76.0403 96.5502 76.2645C97.0126 76.4888 97.4094 76.8283 97.7026 77.2504C98.3026 78.1501 98.6106 79.2131 98.5845 80.2943V92.146H101.947V79.3328C102.706 78.4793 103.4 77.7055 104.029 77.0114C104.356 76.6633 104.754 76.3901 105.196 76.2103C105.638 76.0306 106.113 75.9487 106.59 75.9702C108.084 75.9702 109.046 76.5031 109.475 77.569C109.898 78.6395 110.114 79.7805 110.112 80.9316V92.146Z" fill="#231F20"/>
<path d="M29.4596 24.729C28.6014 24.2657 27.6761 23.9394 26.7172 23.7617C26.5205 23.7248 26.3171 23.7509 26.1361 23.8363C25.9551 23.9217 25.8057 24.0621 25.7092 24.2374C25.6127 24.4128 25.5741 24.6141 25.5987 24.8127C25.6234 25.0113 25.7102 25.1971 25.8466 25.3435C29.1984 28.9559 33.3569 31.7243 37.9828 33.4228C38.0048 28.6953 36.9512 24.0247 34.9019 19.7644C32.8526 15.504 29.8611 11.7656 26.1539 8.83198C26.0046 8.71336 25.8232 8.6421 25.6331 8.62737C25.443 8.61264 25.2528 8.65511 25.087 8.74932C24.9212 8.84353 24.7874 8.98518 24.7027 9.15605C24.6181 9.32693 24.5865 9.51921 24.612 9.70819C25.124 12.9728 26.6162 16.0048 28.8906 18.402C27.7003 17.301 26.2648 16.4994 24.703 16.0636C24.5316 16.0151 24.35 16.0157 24.1789 16.0655C24.0078 16.1153 23.8542 16.2121 23.7355 16.345C23.6169 16.4779 23.538 16.6415 23.5078 16.8171C23.4777 16.9927 23.4975 17.1732 23.5651 17.3381C24.7657 20.3213 26.8077 22.8911 29.4425 24.7347" fill="#231F20"/>
<path d="M35.0997 36.3532C32.5792 34.9137 29.979 33.9351 26.8838 33.9351C23.8146 33.9255 20.8232 34.9007 18.3493 36.7173C17.331 33.9557 15.4922 31.5717 13.0797 29.8854C10.6673 28.1992 7.79668 27.2913 4.85331 27.2838C4.4721 27.2838 4.09089 27.2838 3.71537 27.3293C3.04037 30.8244 2.96534 34.409 3.49347 37.9292C5.37321 36.6031 7.65223 35.9645 9.94737 36.121C12.2425 36.2775 14.4138 37.2194 16.0962 38.7884C14.0029 41.1556 12.745 44.1448 12.5158 47.2964C12.2866 50.4481 13.0987 53.5878 14.8274 56.233C13.5465 57.0868 12.086 57.6336 10.5594 57.831C9.0328 58.0284 7.48124 57.8709 6.02539 57.3709L0 63.402C2.76499 65.7095 6.2932 66.8991 9.8909 66.737C13.4886 66.5749 16.8955 65.0727 19.4417 62.5258C19.8297 62.14 20.1944 61.7315 20.5341 61.3025C20.6593 61.3651 20.7845 61.4334 20.9153 61.4903C28.1631 64.943 36.462 65.4726 44.0899 62.9692C51.7177 60.4658 58.0889 55.1215 61.8811 48.0455C62.086 48.0455 62.2851 48.0171 62.49 48.0171C64.1551 48.0196 65.7934 48.4371 67.2567 49.2318C68.72 50.0266 69.9622 51.1735 70.8709 52.5688L78.4439 44.9958C77.1004 43.2049 75.3581 41.7516 73.3553 40.7512C71.3524 39.7507 69.144 39.2306 66.9052 39.2322C66.2657 39.2325 65.627 39.2762 64.9934 39.363C65.3769 37.3757 65.5674 35.356 65.5624 33.332C65.5624 32.3818 65.5112 31.4373 65.4258 30.4871C65.4258 30.3847 65.4258 30.288 65.4258 30.1856L65.3746 29.7133C65.3746 29.5028 65.3234 29.298 65.295 29.0931C65.2665 28.8883 65.2608 28.82 65.2381 28.6892C65.2153 28.5583 65.1755 28.2738 65.1357 28.0633C65.6477 27.9002 66.1598 27.7105 66.6719 27.4943C73.6702 24.6495 77.8977 18.7777 76.1168 14.408C74.4611 10.3683 68.1967 9.04833 61.7105 11.182L56.3223 0.331719C56.2499 0.197449 56.1313 0.0939352 55.9885 0.0403065C55.8457 -0.0133221 55.6883 -0.0134385 55.5454 0.0399766C55.4025 0.0933918 55.2837 0.196724 55.2111 0.330886C55.1385 0.465048 55.1168 0.620962 55.1502 0.76982L57.9097 12.7808C56.7635 11.4684 55.5113 10.2524 54.1659 9.14506C50.5918 12.0708 47.713 15.7547 45.7381 19.93C43.7631 24.1053 42.7413 28.6676 42.7467 33.2864C42.7467 33.7758 42.7581 34.2594 42.7808 34.7373C44.2156 35.0154 45.6682 35.1922 47.1278 35.2665C45.2314 36.8587 42.8332 37.7293 40.357 37.7244C38.5115 37.7438 36.6951 37.2641 35.0997 36.3361M64.3505 19.0907C64.3516 19.5534 64.2154 20.0061 63.9591 20.3914C63.7029 20.7767 63.3381 21.0773 62.9109 21.2552C62.4837 21.433 62.0133 21.4802 61.5593 21.3906C61.1053 21.301 60.6881 21.0787 60.3605 20.7519C60.0329 20.4251 59.8096 20.0084 59.7189 19.5547C59.6282 19.1009 59.6742 18.6304 59.851 18.2028C60.0278 17.7751 60.3276 17.4096 60.7122 17.1524C61.0969 16.8952 61.5493 16.7579 62.012 16.7579C62.3188 16.7571 62.6228 16.8169 62.9065 16.9338C63.1902 17.0507 63.448 17.2224 63.6652 17.4391C63.8824 17.6558 64.0548 17.9132 64.1724 18.1966C64.29 18.48 64.3505 18.7838 64.3505 19.0907Z" fill="#231F20"/>
</svg>
