<svg width="14" height="13" viewBox="0 0 14 13" fill="none" xmlns="http://www.w3.org/2000/svg">
<path d="M8.41189 6.26421L12.7119 1.97082C12.9002 1.78237 13.006 1.52677 13.006 1.26026C13.006 0.993745 12.9002 0.738148 12.7119 0.549695C12.5236 0.361243 12.2682 0.255371 12.0019 0.255371C11.7356 0.255371 11.4802 0.361243 11.2919 0.549695L7.00189 4.8531L2.71189 0.549695C2.52359 0.361243 2.26819 0.255371 2.00189 0.255371C1.73559 0.255371 1.4802 0.361243 1.29189 0.549695C1.10359 0.738148 0.9978 0.993745 0.9978 1.26026C0.9978 1.52677 1.10359 1.78237 1.29189 1.97082L5.59189 6.26421L1.29189 10.5576C1.19816 10.6506 1.12377 10.7613 1.073 10.8833C1.02223 11.0052 0.996094 11.1361 0.996094 11.2682C0.996094 11.4003 1.02223 11.5311 1.073 11.653C1.12377 11.775 1.19816 11.8857 1.29189 11.9787C1.38486 12.0725 1.49546 12.147 1.61732 12.1978C1.73917 12.2486 1.86988 12.2748 2.00189 12.2748C2.1339 12.2748 2.26461 12.2486 2.38647 12.1978C2.50833 12.147 2.61893 12.0725 2.71189 11.9787L7.00189 7.67533L11.2919 11.9787C11.3849 12.0725 11.4955 12.147 11.6173 12.1978C11.7392 12.2486 11.8699 12.2748 12.0019 12.2748C12.1339 12.2748 12.2646 12.2486 12.3865 12.1978C12.5083 12.147 12.6189 12.0725 12.7119 11.9787C12.8056 11.8857 12.88 11.775 12.9308 11.653C12.9816 11.5311 13.0077 11.4003 13.0077 11.2682C13.0077 11.1361 12.9816 11.0052 12.9308 10.8833C12.88 10.7613 12.8056 10.6506 12.7119 10.5576L8.41189 6.26421Z" fill="black" stroke="black" stroke-width="0.5"/>
</svg>
