<svg width="126" height="107" viewBox="0 0 126 107" fill="none" xmlns="http://www.w3.org/2000/svg">
<path d="M47.305 39.6048C45.7762 38.7968 44.2473 38.2582 42.8983 38.0787C41.4594 37.8093 40.4702 39.515 41.4594 40.5922C46.7654 46.3375 53.4204 50.826 60.9747 53.5191C61.0647 37.54 53.6003 23.2666 41.999 14.11C40.9198 13.2123 39.3011 14.11 39.5708 15.5463C40.5601 22.3689 44.3373 27.2165 46.4057 29.4607C43.7977 27.1267 41.3695 26.1392 39.6608 25.6904C38.4917 25.4211 37.4125 26.5881 37.8621 27.7551C40.4702 34.2185 44.9668 37.9889 47.305 39.6048Z" fill="#50B848"/>
<path d="M107.469 62.7655C106.39 62.7655 105.401 62.8553 104.411 62.9451C105.041 59.8031 105.311 56.5714 105.311 53.2499C105.311 51.7238 105.221 50.1977 105.131 48.7614C105.131 48.5818 105.131 48.4023 105.041 48.3125C105.041 48.0432 104.951 47.7739 104.951 47.5943C104.951 47.2353 104.861 46.9659 104.861 46.6069C104.861 46.4273 104.771 46.158 104.771 45.9785C104.681 45.6194 104.681 45.3501 104.591 44.991C105.401 44.7217 106.21 44.4524 107.019 44.0933C118.261 39.515 125.096 30.0891 122.218 23.1768C119.52 16.7134 109.538 14.5589 99.1054 17.9702L90.4719 0.55472C89.9323 -0.522523 88.3135 0.105868 88.5833 1.27288L92.99 20.5735C91.1914 18.5088 89.1229 16.5338 86.9645 14.7384C75.723 23.895 68.6184 37.8094 68.6184 53.4294C68.6184 54.2373 68.6183 54.9555 68.7083 55.7634C70.9566 56.2123 73.2948 56.4816 75.723 56.5714C72.7552 58.9952 68.9781 60.5213 64.8412 60.5213C61.2439 60.5213 58.5459 59.5338 56.3876 58.277C52.3406 55.943 48.2037 54.4169 43.1675 54.4169C38.0414 54.4169 33.3649 56.0327 29.4978 58.9054C26.2602 50.1079 17.7167 43.824 7.73418 43.824C7.10465 43.824 6.47513 43.824 5.93553 43.9138C5.30601 46.9659 5.03621 50.1977 5.03621 53.4294C5.03621 55.943 5.21607 58.4565 5.5758 60.8803C8.18384 58.9952 11.4214 57.9179 14.8388 57.9179C19.0656 57.9179 22.9327 59.5338 25.8106 62.2269C22.2133 66.2666 19.965 71.6528 19.965 77.5776C19.965 82.2457 21.314 86.5546 23.7421 90.2352C21.224 91.9408 18.0764 92.9283 14.8388 92.9283C13.0402 92.9283 11.2415 92.659 9.62276 92.0306L0 101.636C9.08316 109.267 22.6629 108.728 31.2065 100.2C31.836 99.5713 32.3756 98.9429 32.9152 98.2248C33.0951 98.3145 33.275 98.4043 33.5448 98.4941C40.1098 101.636 47.3943 103.342 55.1285 103.342C74.2841 103.342 90.9216 92.659 99.3752 76.9492C99.7349 76.9492 100.005 76.9492 100.364 76.9492C106.03 76.9492 110.976 79.8219 113.854 84.2206L125.995 72.1016C121.768 66.4461 115.023 62.7655 107.469 62.7655ZM99.645 34.3083C97.5765 34.3083 95.8678 32.6027 95.8678 30.538C95.8678 28.4733 97.5765 26.7676 99.645 26.7676C101.713 26.7676 103.422 28.4733 103.422 30.538C103.332 32.6027 101.713 34.3083 99.645 34.3083Z" fill="#50B848"/>
<path d="M72.5717 78.3855C72.1221 78.1162 71.7623 77.9367 71.3127 77.9367C71.2227 77.9367 71.1328 77.9367 70.9529 77.9367C70.6831 77.9367 70.5033 78.1162 70.3234 78.2958C70.2335 78.3855 70.2335 78.4753 70.1436 78.5651C69.7838 79.2832 69.3342 80.0912 68.9744 80.8991C68.7946 81.2582 68.6147 81.6172 68.4348 81.8866C68.165 82.2456 67.9852 82.6945 67.7154 83.0536C67.3557 83.5922 67.0859 84.1308 66.7261 84.6694C66.2765 85.4774 65.6469 86.1955 65.1073 86.9137C65.0174 87.0035 65.0174 87.0035 64.9275 87.0035H64.8375C64.7476 87.0035 64.7476 87.0035 64.6577 87.0035L64.5678 86.9137C64.4778 86.6444 64.4778 86.3751 64.5678 86.1058C64.7476 84.5797 64.9275 82.9638 65.3771 81.5275C65.7369 80.4502 66.0067 79.373 66.5463 78.3855C66.5463 78.2958 66.6362 78.206 66.6362 78.206C66.7261 77.9367 66.8161 77.5776 66.8161 77.2185C66.7261 76.4106 65.557 76.1413 64.9275 76.1413C64.5678 76.1413 64.3879 76.3208 64.208 76.5901C64.1181 76.7697 64.1181 76.9492 64.0282 77.039C63.5785 78.2958 63.0389 79.8219 62.7691 81.1684V81.0786C62.7691 81.0786 62.4094 81.7968 62.2295 82.1559C61.9597 82.515 61.7799 82.9638 61.5101 83.3229C61.1503 83.8615 59.4416 86.4648 58.902 87.2728C58.8121 87.3625 58.8121 87.3626 58.7222 87.3626H58.6322C58.5423 87.3626 58.5423 87.3626 58.4524 87.3626L58.3624 87.2728C58.2725 87.0035 58.2725 86.7342 58.3624 86.4648C58.5423 84.9388 58.7222 83.3229 59.1718 81.8866C59.5315 80.8093 60.251 78.7446 60.7906 77.7571C60.7906 77.6674 60.8805 77.6674 60.8805 77.5776C60.9705 77.3083 61.0604 76.9492 61.0604 76.5901C61.0604 75.7822 59.8013 75.5129 59.1718 75.5129C58.8121 75.5129 58.6322 75.6924 58.4524 75.9617C58.3624 76.1413 58.3624 76.3208 58.2725 76.4106C57.9128 77.3083 57.2832 79.1037 57.0134 80.0014C56.3839 82.2456 55.9343 84.4899 55.7544 86.8239C55.6645 87.3625 55.6645 87.9012 55.8443 88.6193C55.9342 88.7091 56.0242 89.0682 56.1141 89.3375C56.4738 90.0557 57.3732 90.4147 58.0926 90.4147C58.6322 90.4147 59.1718 90.2352 59.5315 89.7863C59.9812 89.2477 60.4309 88.7091 60.8805 88.1705C61.0604 87.9012 61.5101 87.3626 61.8698 86.9137C61.8698 87.3626 61.8698 87.8114 61.9597 88.35C62.0496 88.4398 62.1396 88.7989 62.2295 89.0682C62.5892 89.7863 63.3986 90.1454 64.208 90.1454C64.7476 90.1454 65.2872 89.9659 65.6469 89.517C66.0966 88.9784 66.5463 88.4398 66.9959 87.9012C67.3557 87.4523 67.7154 86.9137 68.0751 86.3751C68.165 86.2853 68.255 86.1955 68.4348 86.1058C68.4348 86.1058 68.4348 86.1058 68.5248 86.1058C68.7046 86.1058 68.7946 86.3751 68.7946 86.4648C68.7946 87.183 68.7946 87.8114 68.7946 88.5296C68.7946 88.7091 68.7946 88.9784 68.7946 89.158C68.7946 90.0557 69.6939 90.9534 70.6831 90.9534C70.863 90.9534 71.1328 90.8636 71.3127 90.7738C71.4925 90.6841 71.5825 90.5943 71.7623 90.5045C71.9422 90.325 72.0321 90.1454 72.0321 89.8761C72.0321 89.6966 71.9422 89.517 71.9422 89.3375C71.7623 88.7989 71.7623 88.2603 71.7623 87.8114C71.7623 87.3626 71.6724 86.8239 71.6724 86.3751C71.6724 85.7467 71.6724 85.2081 71.7623 84.5797C71.9422 83.3229 72.1221 82.1559 72.6617 80.8991C72.8415 80.4502 72.9315 80.0014 73.0214 79.5525C73.0214 79.373 73.1113 79.2832 73.1113 79.1037C73.0214 78.9241 72.8415 78.6548 72.5717 78.3855Z" fill="white"/>
<path d="M52.519 85.0284C51.6196 85.1182 50.9901 84.9387 50.3606 84.8489C51.4398 79.0138 52.519 70.8447 50.4505 69.5879C49.1915 68.78 48.3821 68.6005 47.3029 68.9596C45.9539 69.4084 43.7056 75.3332 43.2559 76.0514C42.8962 73.8969 44.1553 70.3061 41.0076 69.8573C40.558 69.7675 40.558 70.6652 40.558 71.2038C41.0976 75.423 38.6694 82.6944 39.7486 83.6819C40.3781 84.2205 41.0076 84.3103 41.7271 84.3103C41.907 84.3103 41.9969 84.2205 41.9969 84.041C42.2667 81.8865 44.515 78.2957 47.7526 71.8322C47.9324 71.5629 48.1123 71.114 48.472 71.2038C50.3606 71.6527 47.0331 86.6443 46.4935 88.709C46.2237 89.6067 46.0438 90.4146 47.123 90.8635C48.0224 91.2226 48.8317 91.4021 49.0116 90.4146C49.1915 89.6965 49.5512 88.3499 49.9109 86.6443C50.3606 87.3625 51.0801 87.9909 51.6196 87.9011C52.1592 87.9011 53.4183 87.9908 53.868 87.9908C54.4075 88.0806 54.9471 87.7215 54.7673 87.1829C54.7673 85.8364 53.9579 84.6693 52.519 85.0284Z" fill="white"/>
</svg>
