<svg width="369" height="314" viewBox="0 0 369 314" fill="none" xmlns="http://www.w3.org/2000/svg">
<path d="M138.259 116.21C134.224 114.043 129.88 112.508 125.379 111.66C124.456 111.491 123.503 111.616 122.656 112.018C121.808 112.42 121.109 113.079 120.656 113.901C120.204 114.723 120.021 115.666 120.135 116.598C120.249 117.529 120.652 118.401 121.289 119.09C137.031 136.055 156.563 149.056 178.289 157.03C178.396 134.832 173.448 112.901 163.822 92.898C154.196 72.8954 140.143 55.3461 122.729 41.58C122.028 41.024 121.176 40.6908 120.283 40.6234C119.391 40.5561 118.498 40.7576 117.722 41.202C116.945 41.6464 116.319 42.3133 115.924 43.1168C115.53 43.9203 115.385 44.8235 115.509 45.71C118.339 65.71 129.329 79.85 135.589 86.49C127.949 79.79 120.939 76.82 115.919 75.49C115.118 75.28 114.274 75.2972 113.481 75.5399C112.689 75.7826 111.981 76.2412 111.434 76.8642C110.888 77.4871 110.526 78.2499 110.389 79.0669C110.253 79.884 110.346 80.723 110.659 81.49C116.299 95.4886 125.888 107.545 138.259 116.19" fill="#231F20"/>
<path d="M164.719 170.76C152.879 164 140.819 159.39 126.149 159.39C111.764 159.365 97.7479 163.941 86.1493 172.45C81.3405 159.485 72.678 148.303 61.3262 140.407C49.9744 132.51 36.4773 128.279 22.6493 128.28C20.8393 128.28 19.0593 128.37 17.2793 128.51C14.1323 144.917 13.7942 161.74 16.2793 178.26C25.0932 172.023 35.7878 169.016 46.5605 169.744C57.3333 170.473 67.5255 174.893 75.4193 182.26C65.5984 193.37 59.6987 207.399 58.6273 222.188C57.556 236.978 61.3722 251.71 69.4893 264.12C63.4787 268.136 56.6227 270.712 49.4544 271.647C42.2862 272.582 34.9989 271.85 28.1593 269.51L0.0292969 297.71C13.0078 308.538 29.5667 314.12 46.4517 313.359C63.3367 312.599 79.3267 305.551 91.2793 293.6C93.0917 291.78 94.801 289.86 96.3993 287.85C96.9893 288.15 97.5793 288.47 98.1793 288.74C132.193 304.94 171.138 307.426 206.935 295.681C242.732 283.936 272.634 258.862 290.439 225.66C291.389 225.6 292.329 225.53 293.299 225.53C301.104 225.528 308.786 227.47 315.652 231.18C322.519 234.89 328.353 240.251 332.629 246.78L368.159 211.25C360.955 201.605 351.303 194.062 340.203 189.401C329.104 184.74 316.96 183.131 305.029 184.74C306.864 175.418 307.788 165.94 307.789 156.44C307.789 151.97 307.569 147.55 307.169 143.19C307.169 142.72 307.069 142.25 307.019 141.78C306.949 141.03 306.879 140.29 306.789 139.55C306.679 138.55 306.549 137.61 306.419 136.64C306.329 136.01 306.259 135.38 306.159 134.75C306.019 133.75 305.849 132.75 305.679 131.82C308.079 131.04 310.489 130.17 312.899 129.18C345.739 115.71 365.579 88.26 357.209 67.85C349.449 48.88 320.029 42.66 289.599 52.71L264.319 1.77999C263.951 1.2073 263.4 0.776767 262.755 0.559107C262.11 0.341446 261.41 0.349613 260.77 0.582239C260.13 0.814865 259.589 1.25815 259.234 1.83926C258.88 2.42036 258.733 3.10472 258.819 3.77999L271.759 60.17C266.388 54.0005 260.511 48.2906 254.189 43.1C237.419 56.834 223.911 74.1239 214.643 93.7188C205.375 113.314 200.578 134.724 200.599 156.4C200.599 158.69 200.669 160.96 200.769 163.22C207.504 164.513 214.32 165.338 221.169 165.69C212.27 173.16 201.018 177.246 189.399 177.23C180.736 177.325 172.209 175.075 164.719 170.72M301.989 89.72C301.999 91.8977 301.362 94.0293 300.16 95.8448C298.957 97.6603 297.243 99.078 295.234 99.9182C293.224 100.758 291.011 100.983 288.874 100.565C286.737 100.146 284.772 99.1022 283.229 97.5659C281.686 96.0295 280.633 94.0696 280.204 91.9345C279.776 89.7993 279.991 87.585 280.822 85.5721C281.653 83.5592 283.063 81.8383 284.873 80.6273C286.683 79.4164 288.812 78.77 290.989 78.77C293.898 78.77 296.688 79.922 298.75 81.9741C300.811 84.0262 301.976 86.8113 301.989 89.72Z" fill="#231F20"/>
</svg>
