<svg width="109" height="52" viewBox="0 0 109 52" fill="none" xmlns="http://www.w3.org/2000/svg">
<path d="M109 32.8814C108.999 30.1493 107.912 27.5296 105.98 25.5982C104.047 23.6668 101.427 22.5819 98.6949 22.5819C98.2 22.5842 97.7061 22.6237 97.2171 22.6999C96.5409 20.1647 95.2626 17.8302 93.4907 15.895C91.7188 13.9598 89.5058 12.4812 87.0398 11.5847C84.5739 10.6883 81.9279 10.4005 79.3269 10.746C76.7259 11.0915 74.2468 12.06 72.1004 13.5691C71.6624 10.3926 70.2292 7.43656 68.0066 5.12534C65.784 2.81411 62.8862 1.26658 59.7292 0.704844C56.5723 0.143108 53.3185 0.596072 50.435 1.99874C47.5515 3.4014 45.1866 5.68163 43.6798 8.51206C41.6026 7.03899 39.2245 6.0449 36.7169 5.60139C34.2093 5.15788 31.6346 5.27597 29.1781 5.94719C26.7216 6.61841 24.4445 7.82604 22.5109 9.4831C20.5773 11.1402 19.0352 13.2054 17.9956 15.5301C16.2683 14.8115 14.3902 14.5304 12.5282 14.7117C10.6661 14.893 8.87759 15.5311 7.32127 16.5694C5.76496 17.6077 4.48895 19.0141 3.60651 20.6637C2.72406 22.3134 2.26246 24.1554 2.26261 26.0263C2.26544 27.0018 2.39578 27.9727 2.65032 28.9144C1.49904 29.8514 0.666118 31.1218 0.266009 32.5512C-0.134101 33.9807 -0.0817915 35.4989 0.415776 36.8974C0.913344 38.2959 1.83177 39.506 3.04482 40.3615C4.25787 41.217 5.70604 41.6758 7.1904 41.675C7.95415 41.6724 8.71268 41.5491 9.43798 41.3098C9.91312 42.7971 10.7487 44.1438 11.8703 45.23C12.9919 46.3162 14.3647 47.1081 15.8665 47.5352C17.3683 47.9624 18.9524 48.0115 20.4777 47.6783C22.0031 47.345 23.4223 46.6397 24.6091 45.6252C26.9032 47.2532 29.6205 48.1803 32.4312 48.294C35.242 48.4077 38.0252 47.7031 40.4433 46.2657C41.5129 47.0765 42.8064 47.5379 44.1477 47.5871C45.4889 47.6364 46.8128 47.2711 47.939 46.5411C48.8653 48.1154 50.183 49.4234 51.7642 50.338C53.3454 51.2526 55.1362 51.7428 56.9628 51.7609C58.7893 51.779 60.5895 51.3244 62.1884 50.4413C63.7874 49.5582 65.1308 48.2765 66.0881 46.7209C67.0312 47.5927 68.1471 48.2563 69.3634 48.6686C70.5797 49.0809 71.8692 49.2327 73.148 49.114C74.4268 48.9952 75.6663 48.6087 76.7859 47.9796C77.9056 47.3504 78.8802 46.4927 79.6467 45.4622C80.8696 47.3191 82.5854 48.7988 84.6018 49.7356C86.6183 50.6724 88.8557 51.0292 91.0635 50.7662C93.2713 50.5031 95.3622 49.6305 97.1021 48.2461C98.8419 46.8618 100.162 45.0203 100.914 42.9281C103.204 42.4231 105.253 41.1524 106.723 39.3259C108.193 37.4993 108.996 35.226 109 32.8814Z" fill="#FDB813" fill-opacity="0.2"/>
</svg>
