<svg width="28" height="28" viewBox="0 0 28 28" fill="none" xmlns="http://www.w3.org/2000/svg">
<circle cx="13.9549" cy="13.908" r="13.592" stroke="#232323" stroke-width="0.632184"/>
<g clip-path="url(#clip0_186_2529)">
<path d="M17.1175 7.58621H10.7957C9.04996 7.58621 7.63477 9.0014 7.63477 10.7471V17.069C7.63477 18.8147 9.04996 20.2299 10.7957 20.2299H17.1175C18.8633 20.2299 20.2784 18.8147 20.2784 17.069V10.7471C20.2784 9.0014 18.8633 7.58621 17.1175 7.58621Z" stroke="#232323" stroke-width="1.26437" stroke-linecap="round" stroke-linejoin="round"/>
<path d="M16.4832 13.5098C16.5613 14.0359 16.4714 14.5732 16.2264 15.0454C15.9815 15.5175 15.5939 15.9003 15.1188 16.1395C14.6437 16.3786 14.1053 16.4618 13.5801 16.3773C13.055 16.2928 12.5699 16.0449 12.1938 15.6688C11.8177 15.2927 11.5697 14.8076 11.4852 14.2824C11.4007 13.7573 11.484 13.2189 11.7231 12.7438C11.9622 12.2687 12.3451 11.8811 12.8172 11.6361C13.2893 11.3912 13.8267 11.3013 14.3528 11.3793C14.8895 11.4589 15.3863 11.709 15.7699 12.0926C16.1536 12.4762 16.4037 12.9731 16.4832 13.5098Z" stroke="#232323" stroke-width="1.26437" stroke-linecap="round" stroke-linejoin="round"/>
<path d="M17.4316 10.431H17.4384" stroke="#232323" stroke-width="1.26437" stroke-linecap="round" stroke-linejoin="round"/>
</g>
<defs>
<clipPath id="clip0_186_2529">
<rect width="15.1724" height="15.1724" fill="white" transform="translate(6.36914 6.32184)"/>
</clipPath>
</defs>
</svg>
