<svg width="28" height="28" viewBox="0 0 28 28" fill="none" xmlns="http://www.w3.org/2000/svg">
<circle cx="14.0467" cy="13.9081" r="13.592" stroke="#232323" stroke-width="0.632184"/>
<g clip-path="url(#clip0_186_2539)">
<path d="M16.5763 11.3793C17.5823 11.3793 18.5471 11.779 19.2584 12.4903C19.9698 13.2017 20.3694 14.1664 20.3694 15.1724V19.5977H17.8407V15.1724C17.8407 14.8371 17.7075 14.5155 17.4703 14.2784C17.2332 14.0413 16.9116 13.9081 16.5763 13.9081C16.241 13.9081 15.9194 14.0413 15.6823 14.2784C15.4451 14.5155 15.3119 14.8371 15.3119 15.1724V19.5977H12.7832V15.1724C12.7832 14.1664 13.1828 13.2017 13.8942 12.4903C14.6055 11.779 15.5703 11.3793 16.5763 11.3793Z" stroke="#232323" stroke-width="1.26437" stroke-linecap="round" stroke-linejoin="round"/>
<path d="M10.2553 12.0115H7.72656V19.5977H10.2553V12.0115Z" stroke="#232323" stroke-width="1.26437" stroke-linecap="round" stroke-linejoin="round"/>
<path d="M8.99093 10.115C9.68922 10.115 10.2553 9.5489 10.2553 8.85061C10.2553 8.15232 9.68922 7.58624 8.99093 7.58624C8.29264 7.58624 7.72656 8.15232 7.72656 8.85061C7.72656 9.5489 8.29264 10.115 8.99093 10.115Z" stroke="#232323" stroke-width="1.26437" stroke-linecap="round" stroke-linejoin="round"/>
</g>
<defs>
<clipPath id="clip0_186_2539">
<rect width="15.1724" height="15.1724" fill="white" transform="translate(6.46094 6.32187)"/>
</clipPath>
</defs>
</svg>
