<svg width="118" height="56" viewBox="0 0 118 56" fill="none" xmlns="http://www.w3.org/2000/svg">
<path d="M89.9799 41.8411C89.9326 41.8398 89.8855 41.8326 89.8399 41.8198C89.1955 41.7285 88.5451 41.6857 87.8943 41.6919C86.8266 41.6945 85.7607 41.781 84.7065 41.9507C84.5316 42.3991 84.3842 42.8576 84.2651 43.3239C83.7657 45.4095 83.5435 48.7282 85.1785 49.0906C85.2971 49.1123 85.4172 49.1255 85.5377 49.1301C87.6934 49.1301 88.3663 44.627 88.415 44.0364C88.4637 43.4457 89.2096 43.3239 89.6785 43.3239C90.1474 43.3239 90.4701 43.5066 90.4701 43.7958C90.5165 45.3285 90.067 46.8352 89.1883 48.0919C88.2536 49.4651 86.7922 50.2871 85.4677 50.2871C84.195 50.2871 83.032 49.5168 82.5996 47.7296C82.2038 45.9601 82.2038 44.1251 82.5996 42.3557C82.5387 42.3557 82.4809 42.3557 82.42 42.3557C82.1155 42.3557 81.9085 42.2552 82.3682 41.8533C82.4997 41.7493 82.6369 41.6527 82.7792 41.5641C83.1293 40.2049 83.5718 38.8713 84.1037 37.5725C84.1816 37.4265 84.3017 37.3074 84.4484 37.2308C84.5951 37.1542 84.7614 37.1237 84.9258 37.1432C85.198 37.1469 85.4669 37.2037 85.7174 37.3106C86.3507 37.5938 86.1893 38.0931 85.9975 38.6442C85.8057 39.1953 85.5073 39.9078 85.2059 40.6507C86.4567 40.3418 87.7387 40.1773 89.027 40.1605C89.413 40.1592 89.7986 40.1856 90.1809 40.2396C90.1809 40.2396 91.1826 40.3401 91.0943 40.8821C91.0358 41.1405 90.8961 41.3734 90.6955 41.5465C90.4949 41.7197 90.2442 41.824 89.9799 41.8442" fill="#231F20"/>
<path d="M97.9974 44.5357C97.8943 45.5998 97.7091 46.6544 97.4433 47.69C97.2795 48.386 97.0762 49.0722 96.8343 49.7451C96.7812 49.8481 96.698 49.9324 96.5957 49.9868C96.4934 50.0412 96.377 50.0631 96.2619 50.0496C96.0084 50.0343 95.7567 49.9966 95.5099 49.937C95.0593 49.7878 95.1536 49.1941 95.3028 48.8683C95.9249 47.2894 96.3344 45.6348 96.5207 43.9481C96.5024 43.7776 96.7186 42.9707 96.4081 42.9707H96.3533C95.5434 43.9572 93.8079 46.7918 93.2446 47.6078C92.9402 49.2428 92.6905 50.7438 92.8123 52.4062C92.7757 52.9238 93.2812 54.1995 92.6326 54.3974C92.5458 54.4088 92.4584 54.4149 92.3708 54.4157C92.2 54.4279 92.0287 54.4004 91.8702 54.3355C91.7118 54.2705 91.5705 54.1698 91.4574 54.0412C90.2639 51.301 92.6966 44.4717 92.0876 41.8076C92.0584 41.773 92.0377 41.7319 92.0275 41.6877C92.0172 41.6435 92.0176 41.5975 92.0286 41.5535C92.0396 41.5095 92.0609 41.4687 92.0907 41.4345C92.1206 41.4004 92.1581 41.3738 92.2003 41.357C92.3325 41.3296 92.4672 41.3164 92.6022 41.3174C94.0301 41.3174 94.1611 43.0742 93.8414 44.286C94.2646 43.7227 94.9131 42.8398 95.0593 42.651C95.5373 42.0025 96.0092 41.2352 96.8252 41.2352C96.9976 41.2368 97.1685 41.2677 97.3306 41.3266C97.7173 41.3753 97.9395 41.8533 98.0278 42.1334C98.2714 42.9524 98.0552 43.741 98.0065 44.5387" fill="#231F20"/>
<path d="M109.061 42.9981C109.062 43.0901 109.053 43.182 109.034 43.2721C108.958 43.534 108.903 43.808 108.809 44.0607C108.552 44.7597 108.382 45.4879 108.303 46.2285C108.246 46.5724 108.226 46.9216 108.245 47.2698C108.245 47.5529 108.273 47.8544 108.291 48.1436C108.305 48.4518 108.35 48.7578 108.425 49.057C108.443 49.1606 108.462 49.2549 108.48 49.3615C108.501 49.4338 108.499 49.511 108.474 49.582C108.448 49.653 108.402 49.7143 108.34 49.7573C108.255 49.8121 108.169 49.87 108.087 49.9156C107.976 49.9721 107.853 50.0013 107.728 50.0009C107.445 49.9857 107.178 49.8689 106.975 49.6719C106.771 49.4749 106.646 49.2111 106.623 48.9291C106.623 48.7982 106.623 48.6764 106.623 48.5455C106.623 48.1314 106.623 47.7204 106.623 47.3063C106.623 47.2119 106.583 47.0719 106.47 47.0719H106.443C106.374 47.1242 106.311 47.1834 106.254 47.2485C106.041 47.5529 105.834 47.8574 105.6 48.1406C105.335 48.4785 105.064 48.8074 104.781 49.1271C104.671 49.2463 104.538 49.3412 104.389 49.4057C104.241 49.4702 104.081 49.5029 103.919 49.5016C103.685 49.5242 103.45 49.4787 103.241 49.3707C103.033 49.2626 102.86 49.0966 102.744 48.8926C102.667 48.713 102.613 48.5364 102.585 48.4603C102.521 48.184 102.496 47.9002 102.509 47.6169C102.311 47.8605 102.059 48.1802 101.937 48.3476C101.663 48.6856 101.401 49.0144 101.112 49.325C101.004 49.4483 100.871 49.5465 100.722 49.6128C100.573 49.6791 100.41 49.7118 100.247 49.7086C100.014 49.7271 99.78 49.6799 99.5722 49.5722C99.3645 49.4646 99.1911 49.3009 99.0717 49.0997C98.9986 48.92 98.9408 48.7434 98.9134 48.6673C98.8354 48.3156 98.8169 47.9534 98.8586 47.5956C98.9589 46.2158 99.2038 44.8504 99.5893 43.5218C99.7476 42.995 100.153 41.9081 100.36 41.3905C100.39 41.2935 100.428 41.1989 100.472 41.1073C100.508 41.0279 100.566 40.9608 100.64 40.9142C100.714 40.8677 100.799 40.8438 100.886 40.8455C101.261 40.8455 102.013 40.9764 102.013 41.4757C102.029 41.6765 102 41.8784 101.928 42.0664C101.909 42.1121 101.888 42.1517 101.87 42.1882C101.504 42.9786 101.191 43.7923 100.932 44.6239C100.689 45.5154 100.523 46.4261 100.436 47.3459C100.403 47.5043 100.409 47.6685 100.454 47.8239C100.464 47.8545 100.483 47.8812 100.509 47.9C100.536 47.9104 100.565 47.9166 100.594 47.9183C100.609 47.9226 100.625 47.9226 100.64 47.9183C100.678 47.9029 100.711 47.8764 100.734 47.8422C101.072 47.3916 102.095 45.8449 102.284 45.516C102.424 45.2816 102.555 45.035 102.698 44.8005C102.819 44.6037 102.928 44.4004 103.027 44.1916V44.2281C103.217 43.3931 103.471 42.5738 103.785 41.7772C103.824 41.6828 103.852 41.5793 103.898 41.4879C103.931 41.4073 103.989 41.3393 104.063 41.2934C104.138 41.2475 104.225 41.2261 104.312 41.2322C104.707 41.2322 105.411 41.3661 105.438 41.8624C105.454 42.0632 105.425 42.265 105.353 42.4531C105.335 42.4927 105.316 42.5292 105.298 42.5749C105.005 43.1766 104.773 43.8059 104.604 44.4534C104.354 45.3404 104.187 46.2485 104.105 47.1663C104.07 47.3256 104.076 47.4911 104.123 47.6473C104.123 47.6747 104.162 47.7204 104.181 47.7204C104.208 47.7311 104.237 47.7373 104.266 47.7387C104.281 47.7422 104.297 47.7422 104.312 47.7387C104.349 47.7234 104.382 47.6981 104.406 47.6656C104.77 47.242 105.1 46.79 105.392 46.3138C105.569 45.9849 105.767 45.6652 105.956 45.3364C106.087 45.102 106.218 44.8584 106.367 44.6239C106.495 44.4332 106.602 44.229 106.686 44.015C106.884 43.5279 107.137 43.1016 107.372 42.6449C107.399 42.5916 107.43 42.5407 107.466 42.4927C107.505 42.4326 107.558 42.3823 107.62 42.3454C107.681 42.3085 107.751 42.286 107.822 42.2795C107.88 42.2795 107.947 42.2795 108.011 42.2795C108.285 42.2782 108.551 42.3646 108.772 42.5262C108.856 42.5853 108.924 42.6637 108.972 42.7549C109.019 42.846 109.043 42.9472 109.043 43.0498" fill="#231F20"/>
<path d="M115.358 55.0947C113.586 55.0947 111.704 53.4505 113.114 48.512C113.181 48.2502 113.248 47.9853 113.312 47.7235C113.3 47.7135 113.286 47.7059 113.272 47.7012C113.257 47.6965 113.242 47.6947 113.226 47.6961C112.955 47.6961 112.298 48.305 112.063 48.3903C111.829 48.4755 111.631 48.6156 111.424 48.7374C111.255 48.8222 111.068 48.864 110.879 48.8591C110.27 48.8591 109.585 48.4938 109.661 47.8453C109.865 46.2103 110.739 44.7275 110.788 43.0468C110.861 42.5414 110.483 42.1547 110.179 41.7802C110.177 41.7086 110.191 41.6375 110.22 41.5718C110.248 41.5062 110.291 41.4475 110.345 41.4C110.398 41.3525 110.462 41.3172 110.53 41.2967C110.599 41.2761 110.671 41.2707 110.742 41.2809C111.305 41.2809 112.085 41.7132 112.225 42.2217C112.621 42.9616 112.563 43.9024 112.31 44.7184C111.963 45.7779 111.363 47.0932 111.671 47.0932C111.832 47.0932 112.234 46.737 113.035 45.8266C113.918 44.9132 114.31 43.5644 114.81 42.3709C114.87 42.2896 114.949 42.2242 115.04 42.1802C115.132 42.1362 115.232 42.1149 115.333 42.1182C115.37 42.1182 116.171 42.4227 116.247 42.8306C116.314 43.7136 115.976 44.3987 115.702 45.2055C114.962 47.3368 113.875 50.418 114.246 52.7076C114.359 53.4018 114.922 54.0991 115.431 54.0991C115.693 54.0991 115.939 53.9194 116.107 53.4901C116.192 53.3501 116.256 53.21 116.341 53.076C116.415 52.9711 116.514 52.8863 116.628 52.8294C116.743 52.7725 116.871 52.7453 116.999 52.7503C117.151 52.7429 117.301 52.7821 117.43 52.8626C117.559 52.9432 117.66 53.0612 117.72 53.2009C117.833 54.2696 116.633 55.1069 115.364 55.1069" fill="#231F20"/>
<path d="M67.5797 46.6517C67.2394 47.0013 66.8662 47.3174 66.4654 47.5956C66.0523 47.842 65.5756 47.9607 65.0952 47.9366C64.8056 47.9581 64.5149 47.9112 64.2467 47.7996C63.9786 47.688 63.7404 47.5148 63.5516 47.2941C63.2085 46.8659 63.1801 46.3087 63.4663 45.6226C63.6192 45.3894 63.8209 45.1921 64.0574 45.0444C64.294 44.8967 64.5598 44.802 64.8364 44.767C65.2323 44.6974 65.6343 44.6689 66.036 44.6818H67.5797V46.6517ZM61.9227 41.698C62.4129 41.3678 62.9468 41.1075 63.509 40.9246C64.1139 40.7073 64.7508 40.5921 65.3936 40.5836C65.9457 40.5693 66.4876 40.7349 66.9373 41.0556C67.3635 41.36 67.5797 41.9263 67.5797 42.7241V43.4122H66.2066C65.5885 43.4102 64.9717 43.4673 64.3645 43.5827C63.8034 43.685 63.2664 43.8915 62.7813 44.1916C62.3859 44.4135 62.0593 44.7401 61.8374 45.1355C61.6342 45.4939 61.5128 45.893 61.482 46.3039C61.4512 46.7149 61.5117 47.1275 61.6593 47.5123C61.8069 47.8971 62.0378 48.2444 62.3355 48.5294C62.6331 48.8144 62.9902 49.0299 63.3811 49.1605C63.8714 49.2792 64.3746 49.3365 64.8791 49.331C65.3992 49.3365 65.9134 49.2197 66.3801 48.99C66.59 48.8881 66.7934 48.7732 66.989 48.646C67.1595 48.5333 67.3574 48.3902 67.598 48.2197V49.3097H69.3121V42.6114C69.3121 41.5843 69.0544 40.7988 68.5388 40.2548C68.0322 39.7168 67.3756 39.3434 66.6541 39.1831C65.8615 39.0133 65.0405 39.0289 64.2549 39.2287C63.4309 39.4154 62.6472 39.7485 61.9409 40.2122L61.9227 41.698ZM76.2327 51.2096C75.5769 51.5576 74.8438 51.7346 74.1015 51.7242C73.186 51.7242 72.5284 51.6095 72.1285 51.3801C71.9243 51.2971 71.7497 51.1545 71.6276 50.971C71.5054 50.7875 71.4412 50.5715 71.4434 50.351C71.4366 50.113 71.4788 49.8762 71.5673 49.6552C71.6558 49.4342 71.7888 49.2337 71.958 49.0662C72.1446 48.8762 72.3485 48.7039 72.5669 48.5516L75.0514 48.6369C75.4678 48.6832 75.8734 48.7995 76.251 48.9809C76.4262 49.0705 76.5747 49.2046 76.6816 49.3697C76.7885 49.5349 76.85 49.7252 76.8599 49.9217C76.8747 50.1703 76.8267 50.4185 76.7203 50.6436C76.6139 50.8687 76.4525 51.0633 76.251 51.2096M75.4381 44.0546C75.0103 44.3864 74.4777 44.5539 73.937 44.5265C72.6217 44.5265 71.9651 43.8689 71.9671 42.5536C71.9398 42.0067 72.1241 41.4703 72.4817 41.0556C72.6703 40.864 72.8978 40.7151 73.1488 40.6189C73.3999 40.5228 73.6687 40.4817 73.937 40.4984C75.3092 40.4984 75.9953 41.1834 75.9953 42.5536C75.9953 43.2386 75.8095 43.741 75.4381 44.0546ZM78.7142 39.1953H73.9188C72.9898 39.1828 72.084 39.4855 71.349 40.0539C70.6061 40.6263 70.2347 41.4544 70.2347 42.5383C70.2187 43.2977 70.4944 44.0343 71.005 44.5965C70.7282 44.8719 70.497 45.1894 70.3199 45.5374C70.1489 45.8838 70.0613 46.2654 70.0642 46.6517C70.0527 46.9573 70.1426 47.2581 70.3199 47.5073C70.4978 47.7939 70.7703 48.0093 71.0902 48.1162C70.8071 48.4055 70.5483 48.6764 70.3199 48.9322C70.0892 49.193 69.9151 49.4989 69.8084 49.8304C69.6927 50.2808 69.6927 50.7531 69.8084 51.2035C69.8704 51.4366 69.978 51.655 70.1248 51.8463C70.2716 52.0375 70.4549 52.1978 70.664 52.3179C71.1341 52.6063 71.6585 52.7949 72.2046 52.872C72.8002 52.9615 73.4018 53.0053 74.004 53.003C74.6986 53.0096 75.3909 52.9225 76.0622 52.7442C76.5912 52.6212 77.0882 52.3877 77.5206 52.0591C77.8597 51.7647 78.1487 51.4171 78.3762 51.03C78.5538 50.6555 78.6414 50.2447 78.632 49.8304C78.6348 49.4441 78.5472 49.0624 78.3762 48.716C78.0974 48.211 77.6387 47.8295 77.0913 47.6473C76.5373 47.4511 75.9618 47.3213 75.3772 47.2607L72.8927 47.1754C72.5939 47.1717 72.3 47.0987 72.0341 46.9623C71.906 46.9103 71.7965 46.8209 71.7199 46.7057C71.6433 46.5906 71.6032 46.4551 71.6048 46.3168C71.5844 46.1358 71.6135 45.9526 71.6891 45.7869C71.7647 45.6212 71.884 45.4792 72.0341 45.376L72.3782 45.5465C72.5428 45.6223 72.7154 45.6795 72.8927 45.717C73.2271 45.8133 73.5713 45.8715 73.9188 45.8905C74.4447 45.8975 74.9675 45.8098 75.4624 45.6317C76.9482 45.0045 77.6912 43.948 77.6912 42.4622C77.71 42.1437 77.6583 41.825 77.5399 41.5287C77.4215 41.2324 77.2392 40.9659 77.0061 40.7481H78.7142V39.1953ZM44.2726 44.2525C44.7861 42.5393 45.2996 40.8536 45.8132 39.1953H43.073C42.7868 40.3949 42.4721 41.6127 42.1291 42.8489C41.7861 44.085 41.4714 45.3252 41.1852 46.5695C40.7793 45.3131 40.4231 44.0708 40.1166 42.8428C39.8101 41.6148 39.4812 40.3969 39.1301 39.1892H36.6456L34.7609 46.5695C34.4747 45.3699 34.1459 44.1277 33.7745 42.8428C33.403 41.5579 33.0458 40.3401 32.7027 39.1892H29.8772C30.3908 40.8495 30.9043 42.5211 31.4179 44.2038C31.9314 45.8865 32.446 47.5885 32.9615 49.3097H36.1311C36.4173 48.2258 36.7004 47.1784 36.9897 46.1402C37.2789 45.102 37.559 44.0546 37.8452 42.9707C38.1314 44.0546 38.4146 45.102 38.7038 46.1402C38.9931 47.1784 39.2732 48.2258 39.5594 49.3097H42.7289C43.2424 47.6575 43.757 45.9727 44.2726 44.2555M17.9664 49.3097H20.5361L20.4509 43.1412V42.3282C20.4481 42.0542 20.4195 41.781 20.3656 41.5123C19.9049 39.9717 18.8768 39.2003 17.2813 39.1983C16.767 39.2014 16.2587 39.3094 15.7876 39.5156C15.3164 39.7219 14.8923 40.0221 14.5411 40.3979V39.1983H12.0566V49.3097H14.5411V42.7971C14.8554 42.4265 15.1996 42.0823 15.5702 41.768C15.8339 41.5468 16.1668 41.425 16.511 41.424C16.748 41.4022 16.9864 41.4478 17.1986 41.5555C17.4108 41.6632 17.5883 41.8287 17.7106 42.0329C17.9419 42.4511 18.0326 42.9324 17.9694 43.4061L17.9664 49.3097ZM27.8617 46.9958C27.2345 47.1666 26.582 47.2254 25.9344 47.1693C25.357 47.1279 24.8049 46.916 24.3481 46.5604C23.9218 46.2163 23.7635 45.647 23.8792 44.8462H29.1922C29.5332 44.8462 29.7463 44.7447 29.8316 44.5417C29.9373 44.2252 29.9817 43.8915 29.9625 43.5583C29.9898 42.6736 29.7452 41.8018 29.2618 41.0603C28.7784 40.3189 28.0793 39.7434 27.2588 39.4114C26.4866 39.0982 25.6384 39.0229 24.8231 39.1953C23.9042 39.4034 23.0687 39.8816 22.4238 40.5684C21.6214 41.6593 21.1999 42.9838 21.2242 44.3377C21.1777 45.3648 21.4465 46.3816 21.9945 47.2515C22.4827 47.9722 23.1674 48.5376 23.9675 48.8804C24.8067 49.2291 25.7163 49.3751 26.6225 49.3067C27.6346 49.2417 28.6243 48.98 29.5362 48.5364V46.3077C29.0172 46.6198 28.4535 46.8508 27.8647 46.9927M23.797 42.8824C23.9203 42.4014 24.1387 41.95 24.4394 41.5549C24.5756 41.3524 24.7604 41.1872 24.9769 41.0745C25.1933 40.9617 25.4346 40.905 25.6786 40.9094C25.9352 40.8873 26.1934 40.9263 26.4321 41.0232C26.6707 41.12 26.8831 41.272 27.0518 41.4666C27.3534 41.8806 27.5317 42.3714 27.5663 42.8824H23.797ZM58.9236 49.3097H60.7231V43.0529C60.7214 42.5782 60.6786 42.1044 60.5952 41.6371C60.5119 41.1583 60.3214 40.7045 60.038 40.3096C59.7359 39.9198 59.3451 39.6076 58.8982 39.399C58.4513 39.1904 57.9611 39.0913 57.4683 39.11C56.8318 39.115 56.2146 39.329 55.7115 39.7189C55.1796 40.11 54.6778 40.5406 54.2105 41.0069C54.003 40.4008 53.5746 39.8952 53.0108 39.5911C52.4611 39.2829 51.8417 39.1205 51.2114 39.1191C50.6465 39.1008 50.0909 39.2664 49.6282 39.5911C49.1989 39.8955 48.7544 40.2639 48.2977 40.6628V39.2044H46.5865V49.3097H48.2977V42.4531C48.7544 41.9964 49.1563 41.5823 49.4973 41.2108C49.6727 41.0248 49.8862 40.8788 50.1231 40.7827C50.3601 40.6865 50.615 40.6425 50.8704 40.6537C51.1449 40.637 51.4191 40.6912 51.6665 40.8112C51.9139 40.9312 52.1263 41.1129 52.2832 41.3387C52.6043 41.8202 52.7691 42.389 52.7551 42.9676V49.3097H54.5545V42.4531C54.9605 41.9964 55.3319 41.5823 55.6689 41.2108C55.8435 41.0246 56.0564 40.8784 56.2929 40.7822C56.5294 40.686 56.7839 40.6422 57.039 40.6537C57.8387 40.6537 58.3533 40.9389 58.5826 41.5092C58.809 42.0821 58.9248 42.6927 58.9236 43.3086V49.3097Z" fill="#231F20"/>
<path d="M15.7655 13.2332C15.3063 12.9853 14.8111 12.8107 14.298 12.7156C14.1927 12.6958 14.0839 12.7098 13.987 12.7555C13.8902 12.8012 13.8102 12.8763 13.7586 12.9702C13.7069 13.064 13.6863 13.1717 13.6995 13.278C13.7127 13.3843 13.7591 13.4837 13.8321 13.562C15.6257 15.4951 17.851 16.9766 20.3265 17.8855C20.3382 15.3557 19.7745 12.8563 18.6778 10.5765C17.5812 8.2967 15.9804 6.29619 13.9965 4.72632C13.9166 4.66284 13.8196 4.62471 13.7178 4.61682C13.6161 4.60894 13.5143 4.63167 13.4256 4.68208C13.3369 4.7325 13.2653 4.8083 13.22 4.89974C13.1747 4.99117 13.1578 5.09407 13.1714 5.1952C13.4454 6.94219 14.2439 8.56465 15.461 9.84749C14.8241 9.2583 14.0559 8.82934 13.2201 8.59612C13.1284 8.57017 13.0312 8.57053 12.9397 8.59716C12.8481 8.62379 12.7659 8.67562 12.7024 8.74674C12.6389 8.81785 12.5967 8.90539 12.5806 8.99935C12.5644 9.09331 12.5751 9.18992 12.6112 9.27814C13.2537 10.8745 14.3464 12.2497 15.7564 13.2362" fill="#231F20"/>
<path d="M18.7827 19.4535C17.4339 18.6832 16.0425 18.1595 14.3862 18.1595C12.7438 18.1544 11.143 18.6762 9.81915 19.6483C9.27424 18.1705 8.29025 16.8948 6.99929 15.9924C5.70833 15.0901 4.17219 14.6043 2.59713 14.6002C2.39313 14.6002 2.18914 14.6002 1.98819 14.6246C1.62698 16.4949 1.58682 18.4131 1.86944 20.2969C2.87533 19.5872 4.0949 19.2455 5.32308 19.3292C6.55126 19.413 7.71317 19.917 8.61345 20.7566C7.49331 22.0234 6.82018 23.6229 6.69751 25.3095C6.57485 26.996 7.00943 28.6761 7.93448 30.0917C7.24908 30.5485 6.46752 30.8412 5.6506 30.9468C4.83367 31.0524 4.00339 30.9681 3.22433 30.7006L0 33.928C1.47961 35.1628 3.36764 35.7994 5.29286 35.7126C7.21808 35.6258 9.04119 34.822 10.4037 33.4591C10.6113 33.2526 10.8065 33.034 10.9883 32.8045C11.0553 32.838 11.1223 32.8745 11.1923 32.9049C15.0708 34.7526 19.5117 35.036 23.5936 33.6963C27.6754 32.3567 31.0848 29.4969 33.1141 25.7103C33.2237 25.7103 33.3303 25.6951 33.4399 25.6951C34.331 25.6965 35.2077 25.9199 35.9907 26.3452C36.7738 26.7704 37.4385 27.3842 37.9247 28.1309L41.9772 24.0784C41.2583 23.12 40.326 22.3423 39.2542 21.8069C38.1824 21.2716 37.0006 20.9933 35.8026 20.9941C35.4604 20.9943 35.1186 21.0177 34.7796 21.0641C34.9848 20.0006 35.0867 18.9198 35.084 17.8368C35.084 17.3283 35.0566 16.8229 35.011 16.3144C35.011 16.2596 35.011 16.2078 35.011 16.153L34.9836 15.9003C34.9836 15.7877 34.9562 15.6781 34.9409 15.5684C34.9257 15.4588 34.9227 15.4223 34.9105 15.3523C34.8983 15.2822 34.877 15.13 34.8557 15.0174C35.1297 14.9301 35.4037 14.8286 35.6777 14.7129C39.4227 13.1905 41.6849 10.0484 40.7319 7.71009C39.8459 5.54835 36.4937 4.84198 33.0228 5.98374L30.1394 0.177511C30.1007 0.10566 30.0372 0.050267 29.9608 0.021569C29.8844 -0.00712898 29.8001 -0.00719126 29.7237 0.0213925C29.6472 0.0499762 29.5837 0.105272 29.5448 0.177065C29.5059 0.248858 29.4944 0.332292 29.5122 0.411949L30.9889 6.8393C30.3755 6.13702 29.7055 5.48631 28.9855 4.89374C27.0729 6.45936 25.5324 8.4307 24.4755 10.665C23.4187 12.8993 22.8719 15.3407 22.8748 17.8124C22.8748 18.0742 22.8809 18.333 22.8931 18.5888C23.6609 18.7376 24.4382 18.8322 25.2192 18.8719C24.2044 19.724 22.9211 20.1899 21.596 20.1873C20.6085 20.1976 19.6364 19.941 18.7827 19.4443M34.4355 10.2159C34.4361 10.4635 34.3632 10.7057 34.2261 10.9119C34.089 11.1181 33.8937 11.279 33.6651 11.3742C33.4365 11.4693 33.1848 11.4946 32.9419 11.4466C32.6989 11.3987 32.4757 11.2797 32.3004 11.1048C32.1251 10.93 32.0056 10.707 31.957 10.4642C31.9085 10.2213 31.9331 9.96958 32.0277 9.74074C32.1224 9.51191 32.2827 9.31629 32.4886 9.17865C32.6945 9.04102 32.9365 8.96755 33.1841 8.96755C33.3483 8.96715 33.511 8.99914 33.6628 9.0617C33.8146 9.12425 33.9526 9.21614 34.0688 9.3321C34.1851 9.44805 34.2773 9.5858 34.3402 9.73746C34.4031 9.88911 34.4355 10.0517 34.4355 10.2159Z" fill="#231F20"/>
</svg>
