<svg width="24" height="24" viewBox="0 0 24 24" fill="none" xmlns="http://www.w3.org/2000/svg">
<path d="M8.25 3.44677C7.91848 3.44677 7.60054 3.57551 7.36612 3.80466C7.1317 4.03381 7 4.3446 7 4.66866C7 4.99273 7.1317 5.30352 7.36612 5.53267C7.60054 5.76182 7.91848 5.89055 8.25 5.89055C8.58152 5.89055 8.89946 5.76182 9.13388 5.53267C9.3683 5.30352 9.5 4.99273 9.5 4.66866C9.5 4.3446 9.3683 4.03381 9.13388 3.80466C8.89946 3.57551 8.58152 3.44677 8.25 3.44677ZM4.7125 3.44677C4.97075 2.73132 5.44967 2.11178 6.08325 1.67355C6.71683 1.23533 7.47386 1 8.25 1C9.02614 1 9.78317 1.23533 10.4167 1.67355C11.0503 2.11178 11.5292 2.73132 11.7875 3.44677H20.75C21.0815 3.44677 21.3995 3.57551 21.6339 3.80466C21.8683 4.03381 22 4.3446 22 4.66866C22 4.99273 21.8683 5.30352 21.6339 5.53267C21.3995 5.76182 21.0815 5.89055 20.75 5.89055H11.7875C11.5292 6.60601 11.0503 7.22555 10.4167 7.66377C9.78317 8.10199 9.02614 8.33733 8.25 8.33733C7.47386 8.33733 6.71683 8.10199 6.08325 7.66377C5.44967 7.22555 4.97075 6.60601 4.7125 5.89055H3.25C2.91848 5.89055 2.60054 5.76182 2.36612 5.53267C2.1317 5.30352 2 4.99273 2 4.66866C2 4.3446 2.1317 4.03381 2.36612 3.80466C2.60054 3.57551 2.91848 3.44677 3.25 3.44677H4.7125ZM15.75 10.7781C15.4185 10.7781 15.1005 10.9068 14.8661 11.136C14.6317 11.3651 14.5 11.6759 14.5 12C14.5 12.3241 14.6317 12.6349 14.8661 12.864C15.1005 13.0932 15.4185 13.2219 15.75 13.2219C16.0815 13.2219 16.3995 13.0932 16.6339 12.864C16.8683 12.6349 17 12.3241 17 12C17 11.6759 16.8683 11.3651 16.6339 11.136C16.3995 10.9068 16.0815 10.7781 15.75 10.7781ZM12.2125 10.7781C12.4708 10.0627 12.9497 9.44311 13.5833 9.00489C14.2168 8.56667 14.9739 8.33134 15.75 8.33134C16.5261 8.33134 17.2832 8.56667 17.9167 9.00489C18.5503 9.44311 19.0292 10.0627 19.2875 10.7781H20.75C21.0815 10.7781 21.3995 10.9068 21.6339 11.136C21.8683 11.3651 22 11.6759 22 12C22 12.3241 21.8683 12.6349 21.6339 12.864C21.3995 13.0932 21.0815 13.2219 20.75 13.2219H19.2875C19.0292 13.9373 18.5503 14.5569 17.9167 14.9951C17.2832 15.4333 16.5261 15.6687 15.75 15.6687C14.9739 15.6687 14.2168 15.4333 13.5833 14.9951C12.9497 14.5569 12.4708 13.9373 12.2125 13.2219H3.25C2.91848 13.2219 2.60054 13.0932 2.36612 12.864C2.1317 12.6349 2 12.3241 2 12C2 11.6759 2.1317 11.3651 2.36612 11.136C2.60054 10.9068 2.91848 10.7781 3.25 10.7781H12.2125ZM8.25 18.1094C7.91848 18.1094 7.60054 18.2382 7.36612 18.4673C7.1317 18.6965 7 19.0073 7 19.3313C7 19.6554 7.1317 19.9662 7.36612 20.1953C7.60054 20.4245 7.91848 20.5532 8.25 20.5532C8.58152 20.5532 8.89946 20.4245 9.13388 20.1953C9.3683 19.9662 9.5 19.6554 9.5 19.3313C9.5 19.0073 9.3683 18.6965 9.13388 18.4673C8.89946 18.2382 8.58152 18.1094 8.25 18.1094ZM4.7125 18.1094C4.97075 17.394 5.44967 16.7745 6.08325 16.3362C6.71683 15.898 7.47386 15.6627 8.25 15.6627C9.02614 15.6627 9.78317 15.898 10.4167 16.3362C11.0503 16.7745 11.5292 17.394 11.7875 18.1094H20.75C21.0815 18.1094 21.3995 18.2382 21.6339 18.4673C21.8683 18.6965 22 19.0073 22 19.3313C22 19.6554 21.8683 19.9662 21.6339 20.1953C21.3995 20.4245 21.0815 20.5532 20.75 20.5532H11.7875C11.5292 21.2687 11.0503 21.8882 10.4167 22.3264C9.78317 22.7647 9.02614 23 8.25 23C7.47386 23 6.71683 22.7647 6.08325 22.3264C5.44967 21.8882 4.97075 21.2687 4.7125 20.5532H3.25C2.91848 20.5532 2.60054 20.4245 2.36612 20.1953C2.1317 19.9662 2 19.6554 2 19.3313C2 19.0073 2.1317 18.6965 2.36612 18.4673C2.60054 18.2382 2.91848 18.1094 3.25 18.1094H4.7125Z" fill="#8F52A1"/>
</svg>
