<svg width="25" height="24" viewBox="0 0 25 24" fill="none" xmlns="http://www.w3.org/2000/svg">
<path d="M4.84457 9.84C4.88479 9.33881 5.11232 8.87115 5.48184 8.53017C5.85136 8.18918 6.33576 7.9999 6.83857 8H18.8966C19.3994 7.9999 19.8838 8.18918 20.2533 8.53017C20.6228 8.87115 20.8503 9.33881 20.8906 9.84L21.6936 19.84C21.7157 20.1152 21.6805 20.392 21.5904 20.6529C21.5003 20.9139 21.3571 21.1533 21.1699 21.3562C20.9827 21.5592 20.7555 21.7211 20.5026 21.8319C20.2497 21.9427 19.9766 21.9999 19.7006 22H6.03457C5.75849 21.9999 5.48542 21.9427 5.23255 21.8319C4.97967 21.7211 4.75248 21.5592 4.56526 21.3562C4.37805 21.1533 4.23487 20.9139 4.14474 20.6529C4.05461 20.392 4.01948 20.1152 4.04157 19.84L4.84457 9.84Z" stroke="black" stroke-width="2" stroke-linecap="round" stroke-linejoin="round"/>
<path d="M16.8672 11V6C16.8672 4.93913 16.4458 3.92172 15.6956 3.17157C14.9455 2.42143 13.9281 2 12.8672 2C11.8063 2 10.7889 2.42143 10.0388 3.17157C9.28861 3.92172 8.86719 4.93913 8.86719 6V11" stroke="black" stroke-width="2" stroke-linecap="round" stroke-linejoin="round"/>
</svg>
