<svg width="28" height="28" viewBox="0 0 28 28" fill="none" xmlns="http://www.w3.org/2000/svg">
<circle cx="13.9998" cy="13.908" r="13.592" stroke="#232323" stroke-width="0.632184"/>
<g clip-path="url(#clip0_186_2535)">
<path d="M20.953 8.21839C20.3476 8.64542 19.6773 8.97203 18.9679 9.18563C18.5872 8.74785 18.0812 8.43757 17.5183 8.29674C16.9555 8.15591 16.363 8.19133 15.821 8.39822C15.2789 8.60511 14.8135 8.97347 14.4876 9.4535C14.1617 9.93353 13.9912 10.5021 13.9989 11.0822V11.7144C12.888 11.7432 11.7871 11.4968 10.7944 10.9971C9.80171 10.4975 8.948 9.76006 8.30929 8.85058C8.30929 8.85058 5.78055 14.5402 11.4702 17.069C10.1682 17.9527 8.61726 18.3959 7.04492 18.3333C12.7346 21.4943 19.6886 18.3333 19.6886 11.0632C19.688 10.8871 19.6711 10.7115 19.638 10.5385C20.2832 9.90221 20.7385 9.09884 20.953 8.21839Z" stroke="#232323" stroke-width="1.26437" stroke-linecap="round" stroke-linejoin="round"/>
</g>
<defs>
<clipPath id="clip0_186_2535">
<rect width="15.1724" height="15.1724" fill="white" transform="translate(6.41406 6.32184)"/>
</clipPath>
</defs>
</svg>
