<svg width="126" height="107" viewBox="0 0 126 107" fill="none" xmlns="http://www.w3.org/2000/svg">
<path d="M47.305 39.6048C45.7762 38.7968 44.2473 38.2582 42.8983 38.0787C41.4594 37.8093 40.4702 39.515 41.4594 40.5922C46.7654 46.3375 53.4204 50.826 60.9747 53.5191C61.0647 37.54 53.6003 23.2666 41.999 14.11C40.9198 13.2123 39.3011 14.11 39.5708 15.5463C40.5601 22.3689 44.3373 27.2165 46.4057 29.4607C43.7977 27.1267 41.3695 26.1392 39.6608 25.6904C38.4917 25.4211 37.4125 26.5881 37.8621 27.7551C40.4702 34.2185 44.9668 37.9889 47.305 39.6048Z" fill="white"/>
<path d="M107.469 62.7655C106.39 62.7655 105.401 62.8553 104.411 62.9451C105.041 59.8031 105.311 56.5714 105.311 53.2499C105.311 51.7238 105.221 50.1977 105.131 48.7614C105.131 48.5818 105.131 48.4023 105.041 48.3125C105.041 48.0432 104.951 47.7739 104.951 47.5943C104.951 47.2353 104.861 46.9659 104.861 46.6069C104.861 46.4273 104.771 46.158 104.771 45.9785C104.681 45.6194 104.681 45.3501 104.591 44.991C105.401 44.7217 106.21 44.4524 107.019 44.0933C118.261 39.515 125.096 30.0891 122.218 23.1768C119.52 16.7134 109.538 14.5589 99.1054 17.9702L90.4719 0.55472C89.9323 -0.522523 88.3135 0.105868 88.5833 1.27288L92.99 20.5735C91.1914 18.5088 89.1229 16.5338 86.9645 14.7384C75.723 23.895 68.6184 37.8094 68.6184 53.4294C68.6184 54.2373 68.6183 54.9555 68.7083 55.7634C70.9566 56.2123 73.2948 56.4816 75.723 56.5714C72.7552 58.9952 68.9781 60.5213 64.8412 60.5213C61.2439 60.5213 58.5459 59.5338 56.3876 58.277C52.3406 55.943 48.2037 54.4169 43.1675 54.4169C38.0414 54.4169 33.3649 56.0327 29.4978 58.9054C26.2602 50.1079 17.7167 43.824 7.73418 43.824C7.10465 43.824 6.47513 43.824 5.93553 43.9138C5.30601 46.9659 5.03621 50.1977 5.03621 53.4294C5.03621 55.943 5.21607 58.4565 5.5758 60.8803C8.18384 58.9952 11.4214 57.9179 14.8388 57.9179C19.0656 57.9179 22.9327 59.5338 25.8106 62.2269C22.2133 66.2666 19.965 71.6528 19.965 77.5776C19.965 82.2457 21.314 86.5546 23.7421 90.2352C21.224 91.9408 18.0764 92.9283 14.8388 92.9283C13.0402 92.9283 11.2415 92.659 9.62276 92.0306L0 101.636C9.08316 109.267 22.6629 108.728 31.2065 100.2C31.836 99.5713 32.3756 98.9429 32.9152 98.2248C33.0951 98.3145 33.275 98.4043 33.5448 98.4941C40.1098 101.636 47.3943 103.342 55.1285 103.342C74.2841 103.342 90.9216 92.659 99.3752 76.9492C99.7349 76.9492 100.005 76.9492 100.364 76.9492C106.03 76.9492 110.976 79.8219 113.854 84.2206L125.995 72.1016C121.768 66.4461 115.023 62.7655 107.469 62.7655ZM99.645 34.3083C97.5765 34.3083 95.8678 32.6027 95.8678 30.538C95.8678 28.4733 97.5765 26.7676 99.645 26.7676C101.713 26.7676 103.422 28.4733 103.422 30.538C103.332 32.6027 101.713 34.3083 99.645 34.3083Z" fill="white"/>
<path d="M80.0388 69.2289C79.9488 68.9596 79.769 68.8699 79.4992 68.8699C78.8696 68.7801 78.42 68.8698 77.5207 68.2415C77.071 67.9721 75.9918 67.6131 75.0925 67.6131C74.1932 67.6131 73.2938 67.9722 72.9341 68.8699C72.2146 70.8448 73.4737 71.6527 73.2938 73.9868C73.2938 74.1663 73.2039 74.4356 73.2039 74.7049C73.024 75.8719 72.8442 77.2185 72.4844 78.8344C72.3945 79.2832 72.3046 79.7321 72.2146 80.1809C70.9556 81.9763 68.7073 85.1183 67.718 86.4648C67.718 86.5546 67.6281 86.5546 67.5382 86.6444H67.3583L67.2684 86.5546C67.1784 86.2853 67.2684 85.3876 67.2684 85.1183C67.3583 83.7717 67.808 81.9763 68.1677 80.6298C68.4375 79.6423 68.7972 78.206 69.3368 77.398C69.3368 77.3083 69.4267 77.3083 69.4267 77.2185C69.5167 76.9492 69.5167 76.6799 69.5167 76.3208C69.5167 76.0515 69.3368 75.7822 68.9771 75.6924C68.4375 75.5129 67.8979 75.5129 67.4482 75.5129C67.0885 75.5129 66.9086 75.6924 66.7288 75.9617C66.6388 76.0515 66.6388 76.231 66.5489 76.4106C66.2791 77.2185 65.9194 78.3855 65.6496 79.1934C64.9301 81.5275 64.6603 83.9513 64.4805 86.2853C64.4805 86.7341 64.4805 87.3625 64.5704 87.9012C64.8402 88.8886 65.5597 89.3375 66.5489 89.3375C67.1784 89.3375 67.8979 89.1579 68.2576 88.6193C68.7073 88.1705 69.1569 87.6318 69.6066 87.0932C69.7865 86.9137 70.416 86.1057 71.0455 85.2978C70.9556 85.7467 70.9556 86.1057 70.9556 86.4648C70.9556 86.5546 70.9556 86.7341 70.9556 86.8239C70.9556 87.2727 71.0455 87.6318 71.1355 88.0807C71.5851 89.2477 72.3046 89.6966 73.5636 89.6966C73.6536 89.6966 73.8334 89.6966 73.9234 89.6966C74.1032 89.6068 74.373 89.3375 74.1032 88.9784C73.8334 88.4398 73.8334 87.9011 73.8334 87.3625C73.8334 86.016 74.6428 82.6945 75.1824 79.373C75.2723 78.6548 75.5421 76.5901 75.6321 76.4106C75.722 75.8719 75.8119 74.7947 75.8119 74.7947C75.8119 74.2561 75.8119 73.8072 75.722 73.3584C75.3623 71.3834 74.1932 70.755 74.7327 69.9471C74.8227 69.7676 75.0025 69.7676 75.0925 69.7676C75.4522 69.7676 75.9019 70.1266 76.3515 70.5755C76.8012 70.9346 77.7005 71.2936 78.5099 71.2936C78.9596 71.2936 79.4092 71.1141 79.769 70.755C80.2186 70.2164 80.2186 69.588 80.0388 69.2289Z" fill="#8F53A1"/>
<path d="M62.7719 75.4231C62.4122 75.3334 62.1424 75.2436 61.8726 75.2436C60.5236 75.2436 59.7142 76.5004 58.9048 77.4879C58.635 77.8469 57.4659 79.373 56.7464 80.2707C57.8256 74.6152 59.0847 71.2937 59.1746 68.8699C59.0847 68.1518 57.9155 68.062 57.3759 68.062C57.0162 68.062 56.4766 68.062 56.3867 68.5108C56.1169 69.7676 55.1276 75.3334 53.8686 81.2582C52.7894 87.183 51.6203 91.7613 52.5196 95.9805C52.7894 96.3396 53.1491 96.5192 53.5988 96.5192C53.8686 96.5192 54.1384 96.4294 54.4082 96.3396C55.2176 96.0703 55.0377 94.7237 54.8578 94.0954C54.3182 86.016 55.3075 85.9263 60.8833 78.1162C60.9732 78.0265 61.0632 77.9367 61.1531 77.9367C61.243 77.9367 61.333 77.9367 61.333 78.0265C61.4229 78.2958 61.333 79.2833 61.333 79.4628C60.9732 82.1559 60.3437 85.0286 59.2645 87.4524C59.0847 87.8114 58.9947 88.1705 59.0847 88.5296C59.1746 89.2478 60.0739 89.3375 60.7934 89.3375H61.0632C61.4229 89.3375 61.6927 89.2478 61.7826 88.8887C62.7719 86.1956 63.4014 83.3229 63.7611 80.4503C63.8511 79.1935 64.2108 77.9367 63.8511 76.5902C63.7611 76.2311 63.4014 75.5129 62.7719 75.4231Z" fill="#8F53A1"/>
<path d="M52.2492 86.1057C52.0694 84.849 51.26 83.6819 49.8211 84.041C48.9218 84.1308 48.3822 83.9513 47.7526 83.9513C48.1124 81.2581 49.7311 72.0118 50.0909 70.9346C50.2707 70.4857 50.4506 69.588 49.911 69.588C48.7419 69.4982 48.1124 70.0369 47.6627 70.755C47.6627 70.6653 47.6627 70.4857 47.5728 70.4857C46.7634 68.9596 45.2345 68.7801 43.256 68.8699C38.6695 69.3187 37.5003 73.897 36.9608 77.0389C36.601 80.3604 38.7594 82.9638 42.5366 82.7842C43.6157 82.7842 44.5151 82.4252 45.1446 81.8865C44.605 85.5671 44.2453 88.7989 44.7849 89.1579C45.4144 89.6966 46.2238 89.7863 46.9432 89.7863C47.1231 89.7863 47.213 89.6965 47.213 89.517C47.213 88.7988 47.3929 87.5421 47.4828 86.1057C47.9325 86.6444 48.4721 87.0932 48.9218 87.0035C49.4613 87.0035 50.7204 87.0932 51.1701 87.0932C51.8895 87.0932 52.4291 86.7341 52.2492 86.1057ZM43.9755 79.1934C42.1768 82.7842 39.8386 81.0786 40.1084 78.206C40.3782 75.7822 40.9178 73.4481 42.5366 71.2039C43.4359 69.9471 44.7849 69.0494 45.4144 70.6653C45.954 72.0118 44.7849 77.3083 43.9755 79.1934Z" fill="#8F53A1"/>
</svg>
