<svg width="127" height="107" viewBox="0 0 127 107" fill="none" xmlns="http://www.w3.org/2000/svg">
<path d="M48.3011 39.6048C46.7723 38.7968 45.2434 38.2582 43.8944 38.0787C42.4555 37.8093 41.4663 39.515 42.4555 40.5922C47.7615 46.3375 54.4165 50.826 61.9708 53.5191C62.0608 37.54 54.5964 23.2666 42.9951 14.11C41.9159 13.2123 40.2971 14.11 40.5669 15.5463C41.5562 22.3689 45.3334 27.2165 47.4018 29.4607C44.7938 27.1267 42.3656 26.1392 40.6569 25.6904C39.4878 25.4211 38.4086 26.5881 38.8582 27.7551C41.4663 34.2185 45.9629 37.9889 48.3011 39.6048Z" fill="white"/>
<path d="M108.465 62.7655C107.386 62.7655 106.397 62.8553 105.408 62.9451C106.037 59.8031 106.307 56.5714 106.307 53.2499C106.307 51.7238 106.217 50.1977 106.127 48.7614C106.127 48.5818 106.127 48.4023 106.037 48.3125C106.037 48.0432 105.947 47.7739 105.947 47.5943C105.947 47.2353 105.857 46.9659 105.857 46.6069C105.857 46.4273 105.767 46.158 105.767 45.9785C105.677 45.6194 105.677 45.3501 105.587 44.991C106.397 44.7217 107.206 44.4524 108.016 44.0933C119.257 39.515 126.092 30.0891 123.214 23.1768C120.516 16.7134 110.534 14.5589 100.101 17.9702L91.468 0.55472C90.9284 -0.522523 89.3096 0.105868 89.5794 1.27288L93.9861 20.5735C92.1875 18.5088 90.119 16.5338 87.9606 14.7384C76.7191 23.895 69.6144 37.8094 69.6144 53.4294C69.6144 54.2373 69.6144 54.9555 69.7044 55.7634C71.9527 56.2123 74.2909 56.4816 76.7191 56.5714C73.7513 58.9952 69.9742 60.5213 65.8373 60.5213C62.24 60.5213 59.542 59.5338 57.3837 58.277C53.3367 55.943 49.1998 54.4169 44.1636 54.4169C39.0375 54.4169 34.361 56.0327 30.4939 58.9054C27.2563 50.1079 18.7128 43.824 8.73027 43.824C8.10075 43.824 7.47122 43.824 6.93163 43.9138C6.3021 46.9659 6.0323 50.1977 6.0323 53.4294C6.0323 55.943 6.21217 58.4565 6.5719 60.8803C9.17993 58.9952 12.4175 57.9179 15.8349 57.9179C20.0617 57.9179 23.9288 59.5338 26.8067 62.2269C23.2094 66.2666 20.9611 71.6528 20.9611 77.5776C20.9611 82.2457 22.31 86.5546 24.7382 90.2352C22.2201 91.9408 19.0725 92.9283 15.8349 92.9283C14.0363 92.9283 12.2376 92.659 10.6188 92.0306L0.996094 101.636C10.0793 109.267 23.659 108.728 32.2026 100.2C32.8321 99.5713 33.3717 98.9429 33.9113 98.2248C34.0912 98.3145 34.271 98.4043 34.5408 98.4941C41.1059 101.636 48.3904 103.342 56.1246 103.342C75.2802 103.342 91.9177 92.659 100.371 76.9492C100.731 76.9492 101.001 76.9492 101.361 76.9492C107.026 76.9492 111.973 79.8219 114.85 84.2206L126.991 72.1016C122.764 66.4461 116.02 62.7655 108.465 62.7655ZM100.641 34.3083C98.5726 34.3083 96.8639 32.6027 96.8639 30.538C96.8639 28.4733 98.5726 26.7676 100.641 26.7676C102.71 26.7676 104.418 28.4733 104.418 30.538C104.328 32.6027 102.71 34.3083 100.641 34.3083Z" fill="white"/>
<path d="M81.3959 82.0661C81.4859 81.5274 81.5758 80.8093 81.3959 80.1809C81.2161 79.4627 79.957 79.1036 79.2376 79.1036C78.8778 79.1036 78.7879 79.4627 78.7879 79.732C78.698 80.0911 78.698 80.54 78.698 80.9888C78.608 81.707 78.5181 82.7842 78.4282 82.9638C78.1584 83.5024 76.6295 85.5671 75.3705 87.2727C74.1114 89.0681 73.4819 88.8886 73.302 89.0681C73.2121 89.1579 73.1222 89.1579 73.0322 89.1579C72.8524 89.1579 72.5826 88.9784 72.4926 88.7988C72.4027 88.7091 72.4027 88.6193 72.4027 88.5295C72.4027 88.35 72.3128 88.1704 72.3128 87.9011C72.2228 87.0034 72.4926 86.1057 72.6725 85.208C73.302 81.9763 74.651 79.1036 76.0899 76.3208C76.3597 75.7821 76.5396 75.2435 76.7195 74.7049C77.0792 73.9867 77.349 73.2686 77.5288 72.5504C77.6188 72.2811 77.4389 72.0118 77.1691 71.922C76.7195 71.7425 76.2698 71.6527 75.9101 71.5629C75.8201 71.5629 75.8201 71.5629 75.7302 71.5629C75.5503 71.5629 75.3705 71.6527 75.2805 71.7425C75.1906 71.922 75.0107 72.0118 74.9208 72.1016C74.651 72.5504 74.4711 73.089 74.2014 73.6276C73.9316 73.9867 73.392 74.1663 72.9423 74.3458C72.7624 74.3458 72.5826 74.4356 72.4926 74.4356C72.1329 74.4356 71.8631 74.3458 71.7732 73.897C71.6833 73.4481 71.7732 72.9095 71.953 72.3709C72.1329 71.6527 72.4926 70.9345 73.0322 70.4857C73.302 70.2164 73.392 69.9471 73.4819 69.4982C73.4819 69.3187 73.302 69.0494 73.0322 68.8698C72.5826 68.6903 72.2228 68.6005 71.7732 68.5107H71.6832C71.2336 68.5107 70.8739 68.8698 70.6041 69.1391C69.5249 70.2164 69.1651 71.2936 68.9853 72.8197C68.8953 73.4481 68.8953 74.1663 69.2551 74.7947C69.7947 75.6026 70.7839 76.1412 71.7732 76.1412C71.953 76.1412 72.1329 76.1412 72.3128 76.0514C72.4926 76.0514 72.6725 76.0514 72.9423 76.0514C73.1222 76.0514 73.2121 76.231 73.2121 76.3208C73.2121 76.4105 73.2121 76.5901 73.1222 76.6798C71.3235 80.4502 70.1544 82.5149 69.7947 86.4648C69.7047 87.2727 69.7047 88.8886 70.5141 89.517C71.3235 90.2351 72.1329 90.4147 73.1222 90.5045C73.7517 90.5045 74.2014 90.4147 74.7409 90.2351C74.9208 90.2351 75.0107 90.1454 75.1906 90.0556C76.3597 89.2477 76.9893 88.2602 77.1691 88.2602C77.2591 88.2602 77.2591 88.35 77.2591 88.4397C77.2591 89.0681 77.5288 89.9658 77.9785 90.3249C78.4282 90.7738 79.0577 91.0431 79.5973 91.0431C79.957 91.0431 80.5865 90.8635 80.6765 90.4147C80.7664 90.0556 80.5865 89.6068 80.3168 89.2477C79.957 88.35 80.6765 84.6694 81.0362 83.1433L81.3959 82.0661ZM66.737 74.8844C66.1074 74.7947 65.4779 74.7947 64.8484 74.7947C63.1397 74.7947 61.6108 75.064 60.2618 75.5128C60.7115 74.4356 61.2511 72.9993 61.9706 72.1016C61.9706 72.1016 63.2296 72.1016 63.7692 71.0243C63.6793 70.3959 62.9598 70.2164 62.3303 70.2164C61.6108 70.2164 60.8914 70.3959 60.6216 70.6652C59.0927 71.7425 57.7437 74.5254 56.7545 77.0389C55.6753 77.6673 54.3263 78.7446 55.4055 78.7446C55.5854 78.7446 55.8552 78.7446 56.2149 78.6548C55.4954 82.874 54.686 84.6694 55.4055 88.4397C56.2149 90.1454 57.384 90.8635 58.5531 90.8635C60.3518 90.8635 62.1504 89.2477 62.8699 86.9136C63.1397 86.1955 63.4095 85.7466 63.5893 85.7466C63.7692 85.7466 63.8591 86.1057 63.7692 86.9136C63.8591 88.1704 63.7692 90.4147 65.0283 91.2226C65.2081 91.3124 65.4779 91.4022 65.6578 91.4022C66.4672 91.4022 67.0967 90.5942 66.737 89.7863C65.1182 84.5796 68.4457 80.1809 67.0068 79.6423C66.5571 79.4627 66.1074 79.2832 65.6578 79.2832C65.2081 79.2832 64.7585 79.4627 64.4887 79.732C63.9491 80.4502 60.5316 87.9011 59.6323 88.7988C59.5424 88.8886 59.4525 88.9784 59.2726 88.9784C58.8229 88.9784 58.3733 88.35 58.3733 87.9011C58.1934 86.016 58.4632 81.0786 59.6323 77.6673C61.341 77.3082 62.69 77.1287 63.8591 77.1287C65.2081 77.1287 66.1074 77.3082 66.4672 77.3082C67.9061 77.398 69.0752 74.8844 66.737 74.8844ZM52.7975 83.0535C53.6069 80.0911 55.2256 72.2811 52.4377 70.5755C51.6283 70.0368 50.9988 69.7675 50.2794 69.7675C50.0096 69.7675 49.7398 69.8573 49.38 69.9471C48.121 70.3959 45.9626 76.1412 45.423 76.7696C45.0633 74.7049 46.2324 71.2039 43.2646 70.755H43.1747C42.725 70.755 42.725 71.5629 42.815 72.0118C43.3546 76.1412 40.6566 89.1579 41.6459 90.0556C42.1855 90.5045 42.815 90.684 43.5344 90.684C43.7143 90.684 43.8042 90.5942 43.8942 90.4147C43.9841 89.1579 44.074 88.0807 44.2539 87.0034C44.6136 87.542 45.2432 88.1704 45.8727 88.1704C46.4123 88.1704 50.4592 88.2602 50.9089 88.2602C50.9988 88.2602 50.9988 88.2602 51.0888 88.2602C51.5384 88.2602 51.9881 87.9909 51.8082 87.4523C51.6283 86.375 50.9988 85.3876 49.9196 85.3876C49.8297 85.3876 49.6498 85.3875 49.47 85.4773C49.2901 85.4773 48.9304 85.5671 48.5706 85.5671C47.2217 85.5671 44.9734 85.4773 44.5237 85.3876C45.5129 80.8093 47.4915 77.398 49.8297 72.6402C49.9196 72.3709 50.1894 72.0118 50.5492 72.0118C52.3478 72.3709 50.729 79.4627 50.1894 81.4377C49.9196 82.3354 49.7398 83.1433 50.819 83.5024C51.1787 83.6819 51.5384 83.7717 51.8981 83.7717C52.4377 83.7717 52.7075 83.5921 52.7975 83.0535Z" fill="#F26522"/>
</svg>
