<svg width="97" height="83" viewBox="0 0 97 83" fill="none" xmlns="http://www.w3.org/2000/svg">
<path fill-rule="evenodd" clip-rule="evenodd" d="M43.1558 44.6412C40.0532 42.8698 36.893 41.6617 33.0488 41.6617C29.2793 41.6551 25.6064 42.8542 22.5671 45.084C21.307 41.6866 19.0371 38.7565 16.0624 36.6873C13.0877 34.6182 9.55094 33.5092 5.9274 33.5096C5.45311 33.5096 4.98667 33.5332 4.52024 33.5699C3.69559 37.8692 3.60698 42.2774 4.25819 46.6065C6.56782 44.9722 9.37026 44.1841 12.1932 44.375C15.0161 44.5659 17.6869 45.7242 19.7554 47.6547C17.1819 50.566 15.6359 54.2421 15.3552 58.1176C15.0744 61.9932 16.0745 65.8536 18.2015 69.1055C16.6265 70.1579 14.8299 70.8329 12.9515 71.0779C11.0731 71.3228 9.16353 71.1312 7.37126 70.5179L0 77.9075C3.40093 80.7448 7.74007 82.2075 12.1647 82.0083C16.5892 81.809 20.7793 79.9621 23.9114 76.8305C24.3863 76.3536 24.8342 75.8506 25.2531 75.3238C25.2942 75.3447 25.3353 75.366 25.3765 75.3873L25.3767 75.3874C25.4902 75.4461 25.6042 75.5051 25.7195 75.557C34.6325 79.8021 44.8377 80.4534 54.2181 77.3757C63.5984 74.298 71.4341 67.7276 76.0998 59.0273L76.1961 59.0211C76.4125 59.0072 76.6279 58.9933 76.8493 58.9933C78.8944 58.9927 80.9075 59.5015 82.7067 60.4737C84.506 61.4459 86.0349 62.8508 87.1554 64.5617L96.4658 55.2513C94.5779 52.724 92.0487 50.7472 89.1401 49.5258C86.2315 48.3044 83.0493 47.8828 79.923 48.3045C80.4037 45.8619 80.646 43.3783 80.6463 40.8887C80.6463 39.7174 80.5886 38.5592 80.4838 37.4167C80.4838 37.3346 80.4722 37.2525 80.4605 37.1704C80.4547 37.1293 80.4489 37.0882 80.4445 37.0472C80.4261 36.8506 80.4078 36.6567 80.3842 36.4628C80.359 36.2337 80.3298 36.0166 80.3001 35.7957L80.2873 35.7003C80.2778 35.6342 80.2692 35.5681 80.2606 35.5021C80.2477 35.4031 80.2348 35.304 80.2191 35.205C80.1824 34.943 80.1379 34.6809 80.0934 34.4372C80.7223 34.2328 81.3538 34.0049 81.9853 33.7454C90.5908 30.2157 95.7897 23.0226 93.5964 17.6744C91.563 12.7034 83.8537 11.0735 75.8797 13.707L69.2553 0.361195C69.1589 0.211126 69.0143 0.0983069 68.8453 0.0412705C68.6762 -0.0157659 68.4929 -0.0136258 68.3252 0.0473322C68.1576 0.10829 68.0157 0.22445 67.9228 0.376725C67.8299 0.528999 67.7915 0.708331 67.814 0.88528L71.2049 15.6619C69.7975 14.0452 68.2574 12.549 66.6008 11.1888C62.2063 14.7877 58.6667 19.3184 56.238 24.4531C53.8093 29.5878 52.5523 35.1981 52.5579 40.8782C52.5579 41.4783 52.5762 42.0732 52.6024 42.6654C54.3673 43.0042 56.1534 43.2205 57.9481 43.3126C55.616 45.27 52.6677 46.3409 49.623 46.3366C47.3529 46.3614 45.1183 45.772 43.1558 44.6307V44.6412ZM79.1264 23.4052C79.129 23.9759 78.9622 24.5345 78.647 25.0102C78.3319 25.4859 77.8826 25.8574 77.3561 26.0776C76.8297 26.2978 76.2497 26.3567 75.6897 26.247C75.1297 26.1373 74.6148 25.8638 74.2104 25.4612C73.806 25.0586 73.5301 24.545 73.4179 23.9855C73.3056 23.426 73.3619 22.8458 73.5797 22.3183C73.7974 21.7908 74.1669 21.3399 74.6412 21.0226C75.1155 20.7053 75.6733 20.5359 76.2439 20.5359C77.0062 20.5359 77.7373 20.8377 78.2775 21.3755C78.8177 21.9132 79.123 22.643 79.1264 23.4052ZM36.2222 30.3467C35.1648 29.7788 34.0265 29.3767 32.8471 29.1544C32.6052 29.1101 32.3556 29.1429 32.1335 29.2483C31.9114 29.3537 31.7281 29.5263 31.6095 29.7417C31.4909 29.957 31.4432 30.2043 31.4729 30.4483C31.5027 30.6924 31.6085 30.9208 31.7753 31.1014C35.9004 35.547 41.0185 38.9537 46.7117 41.0433C46.7397 35.2265 45.4433 29.4795 42.9208 24.238C40.3984 18.9965 36.716 14.3978 32.1526 10.7905C31.9688 10.6448 31.7456 10.5575 31.5117 10.5398C31.2779 10.5222 31.0441 10.575 30.8405 10.6914C30.6369 10.8079 30.4728 10.9827 30.3695 11.1932C30.2662 11.4038 30.2283 11.6404 30.2607 11.8727C31.0023 17.1136 33.8821 20.8189 35.5225 22.5588C33.5205 20.8032 31.6836 20.0249 30.3681 19.6764C30.1581 19.6213 29.937 19.6258 29.7294 19.6894C29.5218 19.753 29.3361 19.8732 29.193 20.0365C29.0499 20.1997 28.9551 20.3996 28.9192 20.6137C28.8833 20.8278 28.9077 21.0476 28.9898 21.2486C30.4677 24.9168 32.9806 28.0761 36.2222 30.3415V30.3467ZM41.608 66.018L42.922 64.344L40.312 62.13C40.402 61.716 40.438 61.284 40.438 60.816V52.374H38.008V60.816C38.008 62.832 36.82 64.002 34.966 64.002C33.076 64.002 31.852 62.814 31.852 60.816V52.374H29.422V60.816C29.422 64.128 31.546 66.18 34.966 66.18C36.964 66.18 38.512 65.46 39.448 64.182L41.608 66.018ZM45.0668 64.3792C45.5688 66.0814 45.9665 67.43 44.0428 68.268V69.906C48.688 69.1882 47.9837 66.5141 47.3195 63.9918C47.1009 63.1617 46.8866 62.348 46.8688 61.626V56.37H44.5108V61.428C44.5108 62.494 44.8032 63.4854 45.0668 64.3792ZM60.1751 66V64.29H52.7951V60.888C52.9391 59.502 53.8571 58.512 55.3151 58.494C56.6471 58.494 57.4571 59.322 57.4571 60.672V62.4H59.8151V59.988C59.8151 57.702 58.4651 56.28 56.2511 56.28C54.6851 56.298 53.4791 56.892 52.7951 58.17V56.37H50.4371V69.798H52.7951V66H60.1751Z" fill="white"/>
</svg>
