<svg width="126" height="107" viewBox="0 0 126 107" fill="none" xmlns="http://www.w3.org/2000/svg">
<path d="M47.305 39.6048C45.7762 38.7968 44.2473 38.2582 42.8983 38.0787C41.4594 37.8093 40.4702 39.515 41.4594 40.5922C46.7654 46.3375 53.4204 50.826 60.9747 53.5191C61.0647 37.54 53.6003 23.2666 41.999 14.11C40.9198 13.2123 39.3011 14.11 39.5708 15.5463C40.5601 22.3689 44.3373 27.2165 46.4057 29.4607C43.7977 27.1267 41.3695 26.1392 39.6608 25.6904C38.4917 25.4211 37.4125 26.5881 37.8621 27.7551C40.4702 34.2185 44.9668 37.9889 47.305 39.6048Z" fill="white"/>
<path d="M107.469 62.7655C106.39 62.7655 105.401 62.8553 104.411 62.9451C105.041 59.8031 105.311 56.5714 105.311 53.2499C105.311 51.7238 105.221 50.1977 105.131 48.7614C105.131 48.5818 105.131 48.4023 105.041 48.3125C105.041 48.0432 104.951 47.7739 104.951 47.5943C104.951 47.2353 104.861 46.9659 104.861 46.6069C104.861 46.4273 104.771 46.158 104.771 45.9785C104.681 45.6194 104.681 45.3501 104.591 44.991C105.401 44.7217 106.21 44.4524 107.019 44.0933C118.261 39.515 125.096 30.0891 122.218 23.1768C119.52 16.7134 109.538 14.5589 99.1054 17.9702L90.4719 0.55472C89.9323 -0.522523 88.3135 0.105868 88.5833 1.27288L92.99 20.5735C91.1914 18.5088 89.1229 16.5338 86.9645 14.7384C75.723 23.895 68.6184 37.8094 68.6184 53.4294C68.6184 54.2373 68.6183 54.9555 68.7083 55.7634C70.9566 56.2123 73.2948 56.4816 75.723 56.5714C72.7552 58.9952 68.9781 60.5213 64.8412 60.5213C61.2439 60.5213 58.5459 59.5338 56.3876 58.277C52.3406 55.943 48.2037 54.4169 43.1675 54.4169C38.0414 54.4169 33.3649 56.0327 29.4978 58.9054C26.2602 50.1079 17.7167 43.824 7.73418 43.824C7.10465 43.824 6.47513 43.824 5.93553 43.9138C5.30601 46.9659 5.03621 50.1977 5.03621 53.4294C5.03621 55.943 5.21607 58.4565 5.5758 60.8803C8.18384 58.9952 11.4214 57.9179 14.8388 57.9179C19.0656 57.9179 22.9327 59.5338 25.8106 62.2269C22.2133 66.2666 19.965 71.6528 19.965 77.5776C19.965 82.2457 21.314 86.5546 23.7421 90.2352C21.224 91.9408 18.0764 92.9283 14.8388 92.9283C13.0402 92.9283 11.2415 92.659 9.62276 92.0306L0 101.636C9.08316 109.267 22.6629 108.728 31.2065 100.2C31.836 99.5713 32.3756 98.9429 32.9152 98.2248C33.0951 98.3145 33.275 98.4043 33.5448 98.4941C40.1098 101.636 47.3943 103.342 55.1285 103.342C74.2841 103.342 90.9216 92.659 99.3752 76.9492C99.7349 76.9492 100.005 76.9492 100.364 76.9492C106.03 76.9492 110.976 79.8219 113.854 84.2206L125.995 72.1016C121.768 66.4461 115.023 62.7655 107.469 62.7655ZM99.645 34.3083C97.5765 34.3083 95.8678 32.6027 95.8678 30.538C95.8678 28.4733 97.5765 26.7676 99.645 26.7676C101.713 26.7676 103.422 28.4733 103.422 30.538C103.332 32.6027 101.713 34.3083 99.645 34.3083Z" fill="white"/>
<path d="M77.7918 74.9743C77.6119 74.5254 77.3421 73.7175 76.7126 73.6277C76.3529 73.4482 75.9931 73.3584 75.6334 73.3584C74.3743 73.3584 73.565 74.3459 72.6656 75.2436C72.3958 75.5129 70.867 77.1288 70.0576 77.8469C70.4173 75.9618 69.9677 74.1663 68.0791 74.1663C67.8992 74.1663 67.6294 74.1663 67.3596 74.2561C67.1798 74.3459 66.91 74.6152 67.0898 74.9743C67.7193 79.1935 62.6831 89.8761 64.3019 94.2749C64.6617 94.7237 65.2012 94.9033 65.7408 94.9033C66.4603 94.9033 67.0898 94.4544 66.91 93.467C66.82 91.3125 66.82 90.5045 67.4496 87.4523C67.8093 88.4398 68.7985 88.7091 69.7878 88.7091C69.9677 88.7091 70.1475 88.7091 70.3274 88.7091C71.0469 88.6194 71.8562 88.6194 72.6656 88.6194C73.6549 88.6194 74.6441 88.7091 75.6334 88.8887H75.7233C76.5327 88.8887 76.4428 87.7217 76.173 87.183C75.7233 86.2853 74.6441 86.016 73.475 86.016C72.3958 86.016 71.1368 86.1956 70.2375 86.1956C69.8777 86.1956 69.6079 86.1956 69.2482 86.1058C68.7985 86.1058 68.2589 85.9263 67.8992 85.6569C68.0791 84.849 68.4388 83.7718 68.7086 82.8741C68.9784 82.8741 74.1045 76.0515 75.0938 76.0515C75.2737 76.0515 75.3636 76.2311 75.1837 76.7697C74.9139 78.1162 74.6441 79.4628 74.1045 80.7196C73.7448 81.9764 72.7556 82.6047 72.6656 83.9513C72.6656 84.4899 73.565 84.9388 74.3743 84.9388C74.824 84.9388 75.0938 84.849 75.2737 84.5797C76.4428 82.6047 77.1622 80.3605 77.6119 78.0265C77.7918 76.9492 78.0616 76.2311 77.7918 74.9743ZM61.4241 73.9868C60.6147 77.3981 59.8952 86.7342 59.5355 89.7864C59.2657 91.6715 58.3664 92.5693 57.557 92.5693C57.1073 92.5693 56.6577 92.2999 56.3879 91.6715C56.208 91.1329 56.6577 90.5045 56.2979 89.9659C56.1181 89.6068 55.5785 89.3375 55.0389 89.3375C54.7691 89.3375 54.4993 89.4273 54.3194 89.6966C53.6899 90.5943 54.0496 91.7613 54.7691 92.659C55.4886 93.5567 56.7476 94.3647 58.2765 94.3647C59.7154 94.3647 60.8845 93.3772 61.3342 91.492C62.0536 88.6194 62.7731 79.7321 63.5825 76.2311C63.7623 75.5129 63.9422 75.064 63.5825 74.3459C63.4925 74.1663 62.6831 73.5379 61.9637 73.5379C61.7838 73.6277 61.604 73.7175 61.4241 73.9868ZM57.8268 87.5421C58.0966 87.0933 58.0966 86.4649 57.8268 85.5672L57.7369 85.2979C57.1073 83.682 56.298 82.0661 55.4886 80.3605C55.3087 79.9116 55.2188 79.6423 55.1288 79.4628C55.0389 79.2832 54.949 79.1935 54.7691 79.1037C54.4993 79.1935 54.2295 79.1935 54.0496 79.373C54.1396 78.1162 54.3194 76.8595 54.4993 75.6924L55.2188 70.3062C55.2188 70.1267 55.2188 70.0369 55.2188 69.8574C55.0389 69.4085 54.2295 68.9597 53.7798 68.8699C53.51 68.8699 53.2403 68.7801 52.9705 68.7801C52.8805 68.7801 52.7906 68.7801 52.7007 68.7801C52.6107 69.8574 51.7114 75.872 51.3517 76.5901L50.3624 78.8344C49.1034 81.5275 48.294 82.4252 47.0349 85.1183C46.945 85.2979 46.7651 85.6569 46.5853 85.9262C46.4054 86.1058 46.3155 86.1058 46.1356 86.1058C44.4269 85.7467 46.4953 75.5129 47.0349 73.2686C47.3947 71.6528 47.7544 70.1267 48.1141 68.6006C48.204 68.421 48.1141 68.2415 48.1141 68.062C47.9342 67.4336 46.7651 67.0745 46.2255 67.0745C45.8658 67.0745 45.596 67.1643 45.596 67.5233C45.3262 68.6006 45.1463 69.6778 44.9665 70.5755C44.1571 73.9868 43.6175 77.3083 43.4376 80.4503C43.2578 82.1559 43.2578 84.0411 43.4376 85.9262C43.5276 86.6444 43.7974 87.2728 44.4269 87.7216C45.1463 88.1705 45.8658 88.5296 46.7651 88.5296C47.4846 88.4398 48.1141 88.0807 48.3839 87.5421C48.6537 87.183 51.3517 81.6173 51.3517 81.6173C51.4416 82.2457 51.4416 82.6945 51.4416 82.8741C51.3517 83.8615 51.4416 84.9388 51.6215 86.016C51.6215 86.3751 51.8013 86.7342 51.9812 87.0035C52.3409 87.3626 53.0604 87.6319 53.51 87.6319C53.6899 87.6319 53.9597 87.5421 53.9597 86.9137C53.9597 86.7342 53.9597 86.5546 53.9597 86.2853C53.9597 85.9263 53.8698 85.5672 53.8698 85.1183C53.9597 83.8615 53.9597 82.6048 54.0496 81.348L54.1396 81.7968C54.4094 82.6048 54.6792 83.3229 54.949 84.1308C55.3087 85.1183 55.6684 85.8365 55.8483 86.4649C56.0282 87.0933 56.1181 87.7217 56.208 88.2603C56.2979 88.2603 56.3879 88.2603 56.3879 88.2603C57.0174 88.1705 57.557 87.991 57.8268 87.5421Z" fill="#FDB913"/>
</svg>
