<svg width="28" height="28" viewBox="0 0 28 28" fill="none" xmlns="http://www.w3.org/2000/svg">
<circle cx="14.0916" cy="13.908" r="13.592" stroke="#232323" stroke-width="0.632184"/>
<g clip-path="url(#clip0_186_2545)">
<path d="M20.7543 10.3805C20.6792 10.0804 20.5263 9.80553 20.3109 9.58353C20.0956 9.36153 19.8255 9.20029 19.5279 9.11609C18.4405 8.85057 14.0911 8.85057 14.0911 8.85057C14.0911 8.85057 9.74168 8.85057 8.65432 9.14138C8.35672 9.22557 8.08661 9.38681 7.87126 9.60882C7.65592 9.83082 7.50298 10.1057 7.42788 10.4057C7.22888 11.5093 7.13154 12.6287 7.13708 13.75C7.12999 14.8797 7.22734 16.0077 7.42788 17.1195C7.51068 17.4102 7.66704 17.6747 7.88188 17.8873C8.09672 18.0999 8.36277 18.2536 8.65432 18.3333C9.74168 18.6241 14.0911 18.6241 14.0911 18.6241C14.0911 18.6241 18.4405 18.6241 19.5279 18.3333C19.8255 18.2491 20.0956 18.0879 20.3109 17.8659C20.5263 17.6439 20.6792 17.369 20.7543 17.069C20.9518 15.9738 21.0491 14.8629 21.0451 13.75C21.0522 12.6203 20.9549 11.4923 20.7543 10.3805Z" stroke="#232323" stroke-width="1.26437" stroke-linecap="round" stroke-linejoin="round"/>
<path d="M12.6699 15.8172L16.305 13.75L12.6699 11.6828V15.8172Z" stroke="#232323" stroke-width="1.26437" stroke-linecap="round" stroke-linejoin="round"/>
</g>
<defs>
<clipPath id="clip0_186_2545">
<rect width="15.1724" height="15.1724" fill="white" transform="translate(6.50586 6.32184)"/>
</clipPath>
</defs>
</svg>
